<svg xmlns="http://www.w3.org/2000/svg" xmlns:xlink="http://www.w3.org/1999/xlink" viewBox="0 0 193 187"><defs><style>.cls-1{fill:none;}.cls-2{clip-path:url(#clip-path);}.cls-3{fill:#fff;fill-rule:evenodd;}</style><clipPath id="clip-path"><circle class="cls-1" cx="94.73" cy="95.09" r="91.91"/></clipPath></defs><title>icon_tj</title><g id="Layer_2" data-name="Layer 2"><g class="cls-2"><rect x="-32.02" y="-6.14" width="260.54" height="207.24"/></g><path class="cls-3" d="M163.25,87.47c0,.14,0,.27,0,.41-8.4,3.77-16.88,7.41-25.12,11.47a170.8,170.8,0,0,0-31.05,19.11,3.77,3.77,0,0,0-1.55,2.86A209.89,209.89,0,0,1,102.89,143a31.22,31.22,0,0,1-5.72,13c-1.84,2.44-4.18,4.26-7.54,3.82a8.89,8.89,0,0,1-7-5.36c-1.7-3.62-1.37-7.4-.47-11.11,1.82-7.54,6.36-13.71,12-19.29a67.36,67.36,0,0,1,6.9-6,3,3,0,0,0,1.32-2.77c-.16-7.08-.31-14.16.22-21.24a98.53,98.53,0,0,1,2.37-16.24c.08-.34.13-.69.19-1-.29-.26-.5-.12-.69,0L89.61,86a5.65,5.65,0,0,0-1.81,1.55c-.45.68-.24,1,.61,1a35.32,35.32,0,0,0,4-.35,10.45,10.45,0,0,1-5,2,2,2,0,0,1-2.45-2.36,6.46,6.46,0,0,1,2.32-4.08,78,78,0,0,1,11.44-8.42l6.83-4.45a8.6,8.6,0,0,0,3.34-3.83,7.3,7.3,0,0,1,3.62-3.92,4.27,4.27,0,0,1,5,.63,3.31,3.31,0,0,1,0,4.69c-1.68,2-2.42,4.39-3.31,6.7A121.44,121.44,0,0,0,107,106.67c-.24,2.27-.47,4.54-.75,7.28,17.51-12.06,37.4-19,57-26.49m-60.73,38.58c0-.76,0-1.52,0-2.28,0-.31.08-.72-.25-.86s-.68.26-.92.5a66,66,0,0,0-5.74,6.28c-3.86,5-6.8,10.32-7.32,16.54a9.59,9.59,0,0,0,.74,5.52c1.17,2.22,2.29,2.45,4.43.9a19.72,19.72,0,0,0,7.35-10.11c1.75-5.39,1.37-11,1.71-16.48"/><path class="cls-3" d="M75.61,118.27c-.13-8.56.2-17.11.68-25.65A118,118,0,0,1,80.1,68.45a8.35,8.35,0,0,0,.14-.86.55.55,0,0,0-.72-.08C69.61,71.92,59.6,76.16,50.3,81.62a40.82,40.82,0,0,0-7.74,5.76,12.41,12.41,0,0,0-2.33,2.92c-.75,1.37-.34,2.11,1.34,2.36a12.47,12.47,0,0,0,4.1-.11A40.41,40.41,0,0,0,59,87.68a2.78,2.78,0,0,1,1.35-.62c.07.37-.24.55-.43.74a34.7,34.7,0,0,1-16.54,9.06l-.14,0c-3.09.51-6.11.46-8.18-2S33.3,89.61,34.75,87c2.18-4,5.74-6.76,9.72-9.15,7.61-4.56,16.06-7.43,24.6-10.11,3.66-1.15,7.29-2.38,11-3.49a3,3,0,0,0,2.2-2.09A38,38,0,0,1,91,47.52a14,14,0,0,1,8.83-4.41c3.06-.25,5.54.82,7,3.34s1,5-.84,7.32a12.84,12.84,0,0,1-3.7,2.84,114.92,114.92,0,0,1-13,6.52,5,5,0,0,0-2.9,2.8,116.62,116.62,0,0,0-7.32,26.8,246.66,246.66,0,0,0-2.74,25.54h-.72M89.23,60.71c4.59-1.83,8.77-4.13,11.8-7.86a2.84,2.84,0,0,0,.69-1.87c0-1.32-.5-1.69-1.89-1.38a7.19,7.19,0,0,0-2.35,1.05c-3.92,2.53-6.28,6.15-8.25,10.06"/></g></svg>