<svg xmlns="http://www.w3.org/2000/svg" viewBox="0 0 480 640"><defs><style>.cls-1{fill:#efeded;}.cls-2{font-size:10px;}.cls-114,.cls-129,.cls-130,.cls-140,.cls-141,.cls-142,.cls-143,.cls-144,.cls-158,.cls-161,.cls-162,.cls-2,.cls-44{font-family:AvenirNextLTPro-Regular, Avenir Next LT Pro;}.cls-3{letter-spacing:-0.01em;}.cls-4{letter-spacing:0.11em;}.cls-5{letter-spacing:0.11em;}.cls-6{letter-spacing:-0.05em;}.cls-7{letter-spacing:-0.03em;}.cls-8{letter-spacing:0.07em;}.cls-9{letter-spacing:-0.02em;}.cls-10{letter-spacing:-0.01em;}.cls-11{letter-spacing:0.02em;}.cls-12{letter-spacing:-0.05em;}.cls-13{letter-spacing:-0.01em;}.cls-14{letter-spacing:0.09em;}.cls-15{letter-spacing:-0.04em;}.cls-16{letter-spacing:-0.03em;}.cls-17{letter-spacing:0.06em;}.cls-18{letter-spacing:0.06em;}.cls-19{letter-spacing:-0.01em;}.cls-20{letter-spacing:0.81em;}.cls-21{letter-spacing:0.81em;}.cls-22{letter-spacing:-0.01em;}.cls-23{letter-spacing:0.15em;}.cls-24{letter-spacing:0.15em;}.cls-25{letter-spacing:0.11em;}.cls-26{letter-spacing:-0.1em;}.cls-27{letter-spacing:0.04em;}.cls-28{letter-spacing:0.04em;}.cls-29{letter-spacing:-0.04em;}.cls-30{letter-spacing:-0.02em;}.cls-31{letter-spacing:-0.01em;}.cls-32{letter-spacing:-0.03em;}.cls-33{letter-spacing:-0.03em;}.cls-34{letter-spacing:-0.04em;}.cls-35,.cls-94{font-size:17px;font-family:Multicolore, Multicolore ;}.cls-167,.cls-35{fill:#fff;}.cls-36{font-size:12px;}.cls-125,.cls-36,.cls-77,.cls-96{font-family:AvenirNextLTPro-Bold, Avenir Next LT Pro;}.cls-126,.cls-127,.cls-128,.cls-135,.cls-136,.cls-137,.cls-138,.cls-139,.cls-152,.cls-154,.cls-155,.cls-36,.cls-77,.cls-96{font-weight:700;}.cls-37{letter-spacing:-0.01em;}.cls-38{letter-spacing:-0.02em;}.cls-39{letter-spacing:-0.02em;}.cls-40{letter-spacing:-0.1em;}.cls-133,.cls-154,.cls-41{letter-spacing:-0.01em;}.cls-42{letter-spacing:-0.01em;}.cls-43{letter-spacing:-0.02em;}.cls-125,.cls-44{font-size:9px;}.cls-45{letter-spacing:-0.05em;}.cls-136,.cls-142,.cls-46{letter-spacing:-0.02em;}.cls-146,.cls-47{letter-spacing:-0.1em;}.cls-48{letter-spacing:0.36em;}.cls-49{letter-spacing:0.36em;}.cls-153,.cls-50{letter-spacing:0.02em;}.cls-51{letter-spacing:-0.02em;}.cls-52{letter-spacing:0.48em;}.cls-127,.cls-132,.cls-141,.cls-156,.cls-53{letter-spacing:-0.01em;}.cls-144,.cls-54{letter-spacing:-0.03em;}.cls-128,.cls-129,.cls-134,.cls-55{letter-spacing:-0.01em;}.cls-56{letter-spacing:0.58em;}.cls-57{letter-spacing:0.58em;}.cls-58{letter-spacing:-0.04em;}.cls-138,.cls-59{letter-spacing:-0.03em;}.cls-60{letter-spacing:-0.04em;}.cls-61{letter-spacing:0.01em;}.cls-62{letter-spacing:0.01em;}.cls-63{letter-spacing:0.31em;}.cls-64{letter-spacing:0.31em;}.cls-65{letter-spacing:0.18em;}.cls-66{letter-spacing:0.18em;}.cls-137,.cls-147,.cls-67{letter-spacing:-0.02em;}.cls-68{letter-spacing:0.34em;}.cls-69{letter-spacing:-0.01em;}.cls-70{letter-spacing:0.28em;}.cls-71{letter-spacing:0.12em;}.cls-72{letter-spacing:0.12em;}.cls-73{letter-spacing:-0.01em;}.cls-74{letter-spacing:-0.01em;}.cls-75{letter-spacing:-0.01em;}.cls-76{letter-spacing:-0.05em;}.cls-77{font-size:14px;}.cls-78{letter-spacing:-0.05em;}.cls-79{letter-spacing:-0.06em;}.cls-80{letter-spacing:0.32em;}.cls-81{letter-spacing:-0.01em;}.cls-82{letter-spacing:0.11em;}.cls-83{letter-spacing:0.11em;}.cls-84{letter-spacing:0.05em;}.cls-85{letter-spacing:0.05em;}.cls-86{letter-spacing:0.11em;}.cls-87{letter-spacing:0.1em;}.cls-88{letter-spacing:0.11em;}.cls-89{letter-spacing:0.09em;}.cls-90{letter-spacing:-0.02em;}.cls-91{letter-spacing:-0.02em;}.cls-92{letter-spacing:-0.05em;}.cls-93{letter-spacing:-0.01em;}.cls-95{letter-spacing:-0.09em;}.cls-96{font-size:13px;}.cls-97{letter-spacing:0.02em;}.cls-98{letter-spacing:-0.02em;}.cls-99{letter-spacing:-0.01em;}.cls-100{letter-spacing:-0.04em;}.cls-101{letter-spacing:-0.01em;}.cls-102{letter-spacing:-0.02em;}.cls-103{letter-spacing:0.02em;}.cls-104{letter-spacing:0.02em;}.cls-105{letter-spacing:0em;}.cls-106{letter-spacing:-0.02em;}.cls-107{letter-spacing:-0.1em;}.cls-108{letter-spacing:-0.04em;}.cls-109{letter-spacing:-0.04em;}.cls-110{letter-spacing:-0.06em;}.cls-111{letter-spacing:0.05em;}.cls-112{letter-spacing:0.05em;}.cls-113{letter-spacing:0.03em;}.cls-114{font-size:8.9px;}.cls-115{letter-spacing:-0.05em;}.cls-116{letter-spacing:-0.02em;}.cls-117{letter-spacing:-0.02em;}.cls-118{letter-spacing:-0.01em;}.cls-119{letter-spacing:-0.01em;}.cls-120{letter-spacing:-0.09em;}.cls-121{letter-spacing:-0.03em;}.cls-122{letter-spacing:-0.14em;}.cls-123{letter-spacing:-0.02em;}.cls-124{letter-spacing:-0.08em;}.cls-131,.cls-132,.cls-133,.cls-134,.cls-146,.cls-147,.cls-148,.cls-149,.cls-150,.cls-151,.cls-153{font-family:AvenirNextLTPro-UltLtIt, Avenir Next LT Pro;font-style:italic;}.cls-135,.cls-140{letter-spacing:0.68em;}.cls-139{letter-spacing:-0.02em;}.cls-143{letter-spacing:0.61em;}.cls-145{letter-spacing:0em;}.cls-148,.cls-149,.cls-150,.cls-151{font-size:8px;}.cls-148{letter-spacing:-0.01em;}.cls-149{letter-spacing:0em;}.cls-150{letter-spacing:0.02em;}.cls-152{letter-spacing:-0.02em;}.cls-155{letter-spacing:-0.02em;}.cls-156,.cls-157{font-family:AvenirNextLTPro-UltLt, Avenir Next LT Pro;}.cls-158{font-size:11.57px;fill:#c1c1c1;}.cls-159{letter-spacing:-0.03em;}.cls-160{letter-spacing:-0.03em;}.cls-161{font-size:5.25px;}.cls-162{font-size:5.9px;}.cls-163{letter-spacing:-0.01em;}.cls-164{letter-spacing:-0.01em;}.cls-165{letter-spacing:-0.07em;}.cls-166{letter-spacing:0em;}</style></defs><title>Artboard 1</title><g id="Layer_1" data-name="Layer 1"><path class="cls-1" d="M515.37,23.56c-.71,1.48.6,2.31,1.63,3.29,3.51,3.32,6.76,6.88,10.11,10.36,2.63,2.73,5.36,5.36,8,8.09,3.42,3.55,7,6.94,10.37,10.52A70.89,70.89,0,0,0,552.71,63c1,.81,1.63,2,3.27,2.1.9,0,1.17,2,.32,2.75a2.11,2.11,0,0,0-.7,1.88c0,7.35.37,14.72-.16,22s-.21,14.56-.43,21.83a3.39,3.39,0,0,1-.84,2.07c-2.32,2.76-3.89,6-6,8.94-2.72,3.8-5.23,7.74-7.87,11.59a2.62,2.62,0,0,0-.32,2.17,2.35,2.35,0,0,1-2,3.07c-1.54.24-3,.79-4.57,1s-3,1.61-4.42,2.45c-4.42,2.54-8.81,5.14-13.21,7.72-1.45.85-3.11,1.5-3.07,3.64a1.17,1.17,0,0,1-.74,1c-1.34.51-1.23,1.6-1.45,2.76-.7,3.58-.11,7.26-1,10.81a1.34,1.34,0,0,0,0,.42c.34,4.5-.57,8.95-.73,13.43-.11,3.23-.2,6.51-.55,9.73a109.82,109.82,0,0,0-1,13.11,4.9,4.9,0,0,1-2.67,4.74c-1.07.61-2,1.45-3.1,2a2.34,2.34,0,0,0-1.39,1.86,1.32,1.32,0,0,1-1.57,1.28c-.78-.1-1.45-.45-1.39-1.46,0-.73-.5-1.08-1-1.39a53,53,0,0,1-6.11-4.33,4.25,4.25,0,0,0-2.69-.72c-1.43,0-2.26-.83-1.94-2.16a5.6,5.6,0,0,0-.86-4c-2.09-4.19-4.14-8.39-6.28-12.55-3.11-6.05-6.18-12.13-9.12-18.26-.1-.21-.19-.52-.37-.59-2.71-1.13-4.35-4-7.81-4.11-2.38-.05-4.72-1.22-7.1-1.79-3.3-.8-6.54-1.85-9.91-2.43a48,48,0,0,1-6.57-1.74c-2.16-.7-4.42-.9-6.58-1.55-3.37-1-6.87-1.46-10.2-2.63a42.49,42.49,0,0,0-5.9-1.42c-2.49-.49-4.93-1.26-7.37-2a2,2,0,0,0-2.17.52,2.39,2.39,0,0,1-2.84.7,2.42,2.42,0,0,1-1.47-2.65c.2-1.93-1.57-2.26-2.66-2.93-6.38-4-12.58-8.22-18.82-12.41-4.11-2.76-8.23-5.53-12.39-8.24-4.85-3.17-9.8-6.18-14.59-9.46-5.66-3.87-11.49-7.47-17.1-11.41-3-2.09-6.22-3.77-9.1-6a2.5,2.5,0,0,0-1.75-.41,1.6,1.6,0,0,1-1.65-.87,1.33,1.33,0,0,1,.49-1.64,1.17,1.17,0,0,0,.34-1.42,6,6,0,0,1-.4-2.64,44.82,44.82,0,0,0-1.08-7.67,4.76,4.76,0,0,1-.09-1.13c.06-1.43,0-2.64-1.5-3.6s-1.08-3.4.57-4.18a4,4,0,0,0,2.14-2.3c1.78-4.4,3.83-8.7,5.46-13.16,2.73-7.44,6-14.68,8.66-22.13,1.11-3.07,2.44-6,3.65-9a2.68,2.68,0,0,0,0-2.32,1.74,1.74,0,0,1,.69-2.24,1.46,1.46,0,0,1,2.16,0c.82.76,1.72.2,2.39-.05,3.46-1.28,7.1-2,10.53-3.28s7-2.45,10.47-3.42c4.36-1.2,8.63-2.67,13-3.8,2-.52,3.93-1.3,5.93-1.84,1.63-.44,3.23-1,4.86-1.45a2.86,2.86,0,0,0,2.26-2c1.18-3.6,5.1-4,7-1.41a.94.94,0,0,0,1,.51A73.58,73.58,0,0,0,410.13,9a14.05,14.05,0,0,1,4.44-.78,2.91,2.91,0,0,0,2.88-1.66c1.26-2.23,3.31-2.25,4.63,0a2,2,0,0,0,2,1.16,14.46,14.46,0,0,1,3.88.68c3.56.66,7.19.67,10.74,1.49a17.17,17.17,0,0,0,5.76.71,3.13,3.13,0,0,1,1.39.22c1.42.54,2.5.46,3.24-1.14.48-1,3.08-2.13,4.07-1.82,1.83.58,3.65,1.27,3.94,3.55.15,1.17.65,1.61,1.9,1.76a54.11,54.11,0,0,1,8.18,1.48,55.28,55.28,0,0,0,8.06,1.28c1.18.14,2.29.51,3.46.7,3.61.58,7.17,1.53,10.79,2,1.72.24,3.43.56,5.15.79,2.6.35,5.15,1.09,7.77,1.43,2.2.29,4.35.83,6.5,1.33a2.86,2.86,0,0,0,2.6-.8,2.36,2.36,0,0,1,2.91-.14A2.07,2.07,0,0,1,515.37,23.56Zm-93.59,91.74c.45-1,0-1.51-.79-2.06-2.23-1.51-4.57-2.91-6.62-4.6-3.11-2.56-6.49-4.7-9.74-7-4.57-3.26-9.1-6.56-13.65-9.85-.85-.61-1.66-1-2.55-.3s-.39,1.51-.08,2.33c1.74,4.48,3.47,9,5.15,13.47.71,1.89,1.23,3.86,1.92,5.76,1.49,4.11,3.11,8.17,4.53,12.31.42,1.23.85,2.1,2.25,2.33a30.74,30.74,0,0,0,3,.82c.86,0,1.77,1,2.51.21s1.89-1.42,2.65-2.32c2.73-3.22,5.92-6,8.8-9.07a6.22,6.22,0,0,1,2.16-1.56,4,4,0,0,1-1.28,2.16c-3.27,3.2-6.3,6.64-9.71,9.7a16.41,16.41,0,0,0-1.27,1.34c-.18.2-.44.59,0,.67,1.65.33,3.08,1.71,5,.89,5.85-2.52,11.72-5,17.58-7.46,1.51-.64,1.62-1.13.2-2.07-2.51-1.68-4.94-3.46-7.33-5.3A2.12,2.12,0,0,0,421.78,115.31Zm-30.1-27.84a2.75,2.75,0,0,0,1.45,2.45c1.09.75,2.3,1.36,3.3,2.21,2.78,2.36,5.86,4.28,8.8,6.42,5.8,4.22,11.7,8.3,17.54,12.46a1.76,1.76,0,0,0,2.39-.13c2.17-1.5,3.71-3.62,5.6-5.39a26,26,0,0,0,3-2.8,55.4,55.4,0,0,1,6.91-7.28c2.9-2.61,5.31-5.66,8.18-8.28a1.27,1.27,0,0,0,.39-1.5c-.78-2.48-1.8-4.86-2.79-7.26-.17-.41-.36-.58-.94-.57-3.41.08-6.68,1.08-10,1.47a33.91,33.91,0,0,0-4.32.58c-3.2.8-6.51.88-9.73,1.52-1.74.35-3.54.52-5.29.8-3.05.49-6.12,1-9.17,1.42-4.43.6-8.8,1.73-13.3,1.89A1.92,1.92,0,0,0,391.68,87.46Zm78.09,26.65h-.09c0,.33,0,.66.07,1,.31,2.77,1.15,5.44,1.49,8.22a31.68,31.68,0,0,0,.54,4.61c.81,3,.93,6.05,1.54,9.06.49,2.39.78,4.83,1.16,7.24,0,.29.1.65.4.69,1.83.28,3.29,2,5.59.45,3.13-2.13,6.74-3.55,10.08-5.39,4.92-2.71,9.78-5.53,14.67-8.28,1.35-.76,2.74-1.46,4.1-2.21a1.46,1.46,0,0,0,.86-1.18c.26-1.85-.26-3.07-2.22-4-1.68-.83-2.92-2.21-4.38-3.31-3.21-2.41-6.23-5.07-9.38-7.55-3.74-2.94-7.57-5.76-11.14-8.92a3.19,3.19,0,0,0-3.21-.56,38.9,38.9,0,0,0-5.44,2.38c-1.51.77-3.26.93-4.67,2a1.24,1.24,0,0,0-.62,1.49C469.42,111.23,469.57,112.67,469.77,114.11Zm-3.28-39.75c-.36,0-.88.08-1.38.19-1.81.39-1.78.55-1.39,2.41A65.08,65.08,0,0,1,465,85c.16,1.84.47,3.66.78,5.44.56,3.19.82,6.43,1.66,9.57.52,1.93.24,4,.84,5.89.26.83.56,1.18,1.52.74,2.66-1.22,5.35-2.39,8.07-3.46a8.11,8.11,0,0,0,4.43-4.4c1.26-2.69,2.35-5.48,3.73-8.11,1.51-2.89,2.45-6,4-8.9.87-1.67,1.25-3.58,2.14-5.24s1.36-3-.48-4.57c-.83-.68-1.43-1.26-2.5-1.07-3.37.6-6.79.87-10.15,1.58a46.93,46.93,0,0,1-8.69,1.19C469,73.7,468,74.81,466.49,74.36Zm25.16,120.45a5.89,5.89,0,0,0,.57-1.05c1.13-3.93,3.12-7.51,4.82-11.18,2.36-5.1,4.38-10.33,6.74-15.42,1.39-3,2.77-6,4.17-9,.47-1,.32-1.69-.85-2.07-1.85-.61-3.8-.51-5.68-1a35.1,35.1,0,0,0-6.4-1c-2-.1-3.87-.72-5.84-.92s-3.84-.12-5.66-1c-1.23-.59-2.72-.1-4-.52-.11,0-.36.26-.49.44a7.66,7.66,0,0,1-1.61,1.78,1.12,1.12,0,0,0-.3,1.5c1.37,3.4,2.53,6.88,3.93,10.28,1.59,3.87,2.78,7.91,4.22,11.84C487.29,183.25,489.45,188.93,491.65,194.81Zm38.83-93.73a59.25,59.25,0,0,1-1.56-6.48c-.93-3.88-1.9-7.75-2.68-11.66-.17-.82-.41-.92-1.12-.51-1.31.75-2.65,1.47-4,2.1q-7.72,3.55-15.48,7a1.7,1.7,0,0,0-1.1,2.46,122.14,122.14,0,0,1,3.67,12.44c1.47,5.59,3.29,11.08,4.64,16.7.14.56.18,1.13,1,1.19a1.7,1.7,0,0,0,1.73-.75c1-1.65,2.25-3.16,3.3-4.77,3.2-4.95,6.61-9.75,9.88-14.65C529.38,103.16,529.92,102.06,530.48,101.07Zm-122,36.37-.09.28a5.29,5.29,0,0,0,.77.58c3.89,2,7.73,4,11.68,5.81,3.1,1.41,6,3.1,9.09,4.6,2.49,1.23,4.86,2.71,7.36,3.93,4.84,2.36,9.7,4.68,14.45,7.23,4.37,2.35,8.81,4.56,13.24,6.81a2,2,0,0,0,3-1.16c1.43-3.15,2.19-6.52,3.37-9.75a2.5,2.5,0,0,0-.58-3,1.87,1.87,0,0,1-.52-1c-.33-1.81-1-3.11-3.23-2.72-.21,0-.45-.13-.68-.17a30,30,0,0,0-4.7-.94,13.9,13.9,0,0,1-3.88-.7c-3.32-1.12-6.82-1.29-10.21-2.07-2.34-.54-4.71-.9-7.05-1.43-2.61-.6-5.28-.81-7.88-1.51-1.65-.44-3.42-.54-5.11-1a52.08,52.08,0,0,0-6.18-1.43c-2.79-.39-5.54-.94-8.28-1.59C411.53,137.84,410,137.69,408.47,137.45Zm30.06-79.56c-.06-.15-.18-.51-.31-.86-.64-1.63-1.3-3.24-1.91-4.88-1.56-4.15-3.08-8.31-4.65-12.45-.58-1.52-.74-1.55-1.83-.43q-3.51,3.61-7,7.27c-3.54,3.74-6.89,7.64-10.47,11.34-3.08,3.18-5.86,6.67-9,9.76-3.6,3.5-6.74,7.4-10.28,10.94-.7.7-1.38,1.42-2,2.17-.23.26-.52.65-.16,1a.68.68,0,0,0,.92,0c1.53-1.27,3.5-1.67,5.17-2.62,3.59-2,7.34-3.73,11.08-5.43,4.86-2.21,9.58-4.7,14.33-7.12,3-1.55,6.21-2.73,9.23-4.31,1.81-1,3.74-1.78,5.63-2.65C437.85,59.32,438.62,59,438.53,57.89Zm20.18,52.76a34.67,34.67,0,0,0-1-3.56c-1.72-4.23-3.14-8.59-5.1-12.72-.8-1.68-1.16-3.5-1.85-5.21-.63-1.55-.7-1.56-1.83-.39-2.17,2.23-4.44,4.38-6.65,6.57-4.83,4.78-9.38,9.85-14.39,14.45-.52.48-.89,1.13-1.38,1.6-1.16,1.13-.47,1.86.42,2.49,2.92,2.08,5.68,4.37,8.73,6.27a2.09,2.09,0,0,0,2.14.1c4.53-2.07,9.27-3.64,13.75-5.86,2.06-1,4.24-1.84,6.34-2.81C458.3,111.38,458.79,111.24,458.72,110.64Zm-71.26-33.5c0,.92-.07,1.56.53,1.86s1-.39,1.37-.72a23.29,23.29,0,0,0,3.88-4.07c2.28-3.05,5.13-5.54,7.64-8.36,5-5.58,10.23-10.89,15.24-16.44,3.28-3.63,6.77-7.07,10.15-10.61.94-1,1.82-2.05,2.7-3.11.69-.83.56-2-.24-2.06-2.38-.23-4.65.5-7,.89a1.43,1.43,0,0,0-.48.29c-2.18,1.48-4.42,2.9-6.53,4.47-4,3-8.29,5.74-12.49,8.53q-4.66,3.1-9.22,6.37c-.81.58-1.77,1.14-2,2.31-.25,1.49-.67,3-.8,4.47-.34,4-1.38,7.77-2.11,11.64C387.87,74.22,388,75.9,387.45,77.14Zm56.23-45.26c-2.59-.22-4.66.75-6.86.64a1.17,1.17,0,0,0-.77.3,26.24,26.24,0,0,0-3.33,3.07,2.4,2.4,0,0,0-.52,2.59c1.77,4.37,3.32,8.83,5.13,13.17.66,1.58,1,3.25,1.71,4.78.33.7.62,1.63,1.73,1.17A22.44,22.44,0,0,0,444,56.2a31,31,0,0,1,5.34-2.61c2.66-1,5.15-2.36,7.69-3.62.64-.32,1-.71.83-1.43a65.71,65.71,0,0,1-1.23-7.08c-.39-3.21-1.09-6.38-1.52-9.58-.15-1.14-.54-1.45-1.63-1.29C450.12,31.06,446.72,31.48,443.68,31.88ZM350.8,84.24c.77,1.26.23,2.9.6,4.4.8,3.2,1,6.49,1.5,9.73.32,2.16.64,4.37.79,6.58a21.91,21.91,0,0,0,.88,5c.29.92.72,1.25,1.48.49,1.61-1.6,3.56-2.8,5.11-4.48,1.37-1.49,2.94-2.8,4.41-4.2,2.25-2.16,4.71-4.1,6.8-6.43a1.79,1.79,0,0,0,.39-2.27C370,87.11,367,81.26,364,75.41c-.38-.74-.83-.84-1.47-.37-1,.7-1.9,1.41-2.88,2.09-2.71,1.88-5.43,3.73-8.15,5.6A1.47,1.47,0,0,0,350.8,84.24Zm109.57,82c-.16-.34-.48-.44-.75-.62-2.6-1.76-5.55-2.82-8.31-4.27-4.65-2.43-9.41-4.68-14-7.15-4.24-2.27-8.61-4.29-12.84-6.59-3.27-1.77-6.69-3.34-10-5.08-3.13-1.66-6.39-3.06-9.46-4.83-.85-.48-1.47-.21-1.33.82.45,3.35.08,6.72.23,10.08a15,15,0,0,0,3.28,4.46l.14,0c2.82.74,5.62,1.51,8.45,2.22,1.87.47,3.72,1,5.64,1.3a19.32,19.32,0,0,1,4.89,1.28c2.53,1.13,5.27,1.33,7.85,2.19,2.08.69,4.3,1,6.44,1.49,2.41.6,4.77,1.49,7.22,1.9,3.65.61,7.13,1.87,10.78,2.45C459.17,166.06,459.65,166.65,460.37,166.27ZM380.19,52c0-4.06-1.25-8-1.11-12.08,0-.64-.45-1-1.08-1.14a25.18,25.18,0,0,0-4-1c-1.12-.09-2.17-1.18-3.26-.45a10.58,10.58,0,0,0-2.69,2c-2,2.6-5,4.28-7.12,6.82a32.5,32.5,0,0,1-2.64,2.32.91.91,0,0,0-.19,1.37c.5.68.93,1.42,1.43,2.11,1.63,2.2,3.32,4.36,4.91,6.59,1.89,2.66,4.22,5,6,7.73.43.67,1,1.09,1.9.47,2.66-1.89,5.32-3.76,8-5.58a1.75,1.75,0,0,0,.74-2.06C380.77,56.74,380.5,54.35,380.19,52Zm11.55,30.75.1.4c1.18-.21,2.36-.53,3.55-.69,1.81-.25,3.65-.39,5.45-.72a56.26,56.26,0,0,1,5.54-1.1c3.43-.27,6.78-1,10.18-1.44,2.67-.34,5.29-1.05,7.94-1.38,2.81-.34,5.61-.7,8.4-1.2,1.76-.31,3.55-.48,5.3-.76s3.74-.35,5.59-.83c1.44-.37,1.21-1,.81-1.85-1.84-4-2.92-8.37-4.9-12.35-.34-.69-.71-1.1-1.54-.65-.49.27-1.05.42-1.56.67-5.68,2.8-11.32,5.67-17,8.39C410.23,73.65,401,78.21,391.73,82.72Zm80.4,62.49-.27-.76c-1-2.85-2.09-5.66-3.21-8.46-2.71-6.79-5.21-13.66-7.81-20.5a11.31,11.31,0,0,0-.77-1.68,1.29,1.29,0,0,0-1.8-.6c-6.32,2.49-12.56,5.19-18.79,7.92-1.24.54-1.29.89-.19,1.72,1.43,1.09,3,2,4.38,3.13,2.81,2.33,6,4.13,8.88,6.34,4.23,3.24,8.68,6.2,13,9.27q2.66,1.87,5.36,3.68C471.32,145.52,471.84,146,472.13,145.21Zm14.72,60.07a4.59,4.59,0,0,0,.73-.9c1-2.33,2-4.67,3-7a4,4,0,0,0-.17-3.14c-1.52-4.25-3.37-8.38-4.81-12.67-1.35-4-3-8-4.42-12-1.64-4.56-3.2-9.15-4.84-13.72-.18-.49-.15-1.29-1.12-1.18a1.61,1.61,0,0,0-1.58,1.15c-.89,2.54-1.91,5-2.72,7.6-.54,1.7-1.53,3.4-.56,5.31a1.35,1.35,0,0,1-.38,1.45,1.51,1.51,0,0,0-.13,1.93c2.54,5.44,5.59,10.61,8.19,16,2.43,5.06,4.93,10.09,7.45,15.11A5.88,5.88,0,0,0,486.85,205.29ZM415.49,33.91c2.9-.09,5.77-.24,8-2.49A6.69,6.69,0,0,1,425.75,30c1.43-.55,1.53-1.5,1.06-2.7q-1.71-4.42-3.49-8.82c-.17-.41-.39-.86-1-.85a27.52,27.52,0,0,0-7.11,1,52.09,52.09,0,0,1-6,.91c-1.85.32-3.81.18-5.46,1.24a35.32,35.32,0,0,0-4.15,3c-1.27,1.11-2.94,1.85-3.54,3.66-.85,2.57-.9,5.27-1.45,7.88-.12.59.21.92.77.93s1.22-.08,1.84-.09a75.41,75.41,0,0,0,8.13-1,21.36,21.36,0,0,1,6.18-.38,1,1,0,0,0,.68-.13C413.2,33.71,414.36,33.9,415.49,33.91Zm96.35,34.68v0c-2.46,0-4.93,0-7.39,0a1.44,1.44,0,0,0-1.63,1.14c-.63,1.77-1.32,3.59-3.37,4.31a.65.65,0,0,0-.38.94,14.35,14.35,0,0,1,.73,2.72c.7,1.95,1.31,3.93,1.92,5.91.72,2.33,1.39,4.68,2.08,7,.12.42.36.55.73.31,1.68-1.09,3.67-1.5,5.43-2.42,4-2.11,8.17-3.88,12.28-5.78,1.11-.51,2.4-.82,3.21-1.75.66-.75-.31-1.57-.39-2.41a65.9,65.9,0,0,0-1.9-8.65c-.51-2.2-.67-2.17-3-1.5a4.14,4.14,0,0,1-1.12.12Zm.41,55.79a21.32,21.32,0,0,0-.77-3c-1.56-3.77-2.25-7.78-3.41-11.66q-2.31-7.72-4.48-15.47c-.36-1.3-.92-1.28-1.94-.77q-4.74,2.38-9.54,4.65c-2.69,1.28-5.5,2.29-8.12,3.72-1.44.79-1.47,1.06-.22,2,1.65,1.25,3.32,2.49,4.95,3.77q4.17,3.28,8.3,6.62c3.56,2.87,7.27,5.55,10.68,8.6a23.94,23.94,0,0,0,2.94,2.23C511.52,125.63,512.21,125.28,512.24,124.37Zm7.51-57.65c2.51.09,2.84-.37,2.05-2.77-.06-.18-.08-.37-.13-.55-1.28-4.65-2.05-9.42-3.16-14.11a3.6,3.6,0,0,0-2-2.71c-2-.91-3.86-2-5.79-3l-2.77-1.43c-.61-.31-1-.29-1.29.49Q503.25,52,499.8,61.39c-.3.81,0,1.22.51,1.74.78.87,2,1.36,2.35,2.6s1.12,1.43,2.26,1.46C509.87,67.3,514.81,67.06,519.75,66.72Zm-173.43-7.5c-3,3.19-6.1,5.63-8.9,8.41a18.49,18.49,0,0,1-2.84,2.56,4,4,0,0,0-2,3c-.35,3.94-2.08,7.52-2.74,11.35-.19,1.07-1.12,2.27-.23,3.31,1.25,1.47,2.7,2.78,4.07,4.15.56.56,1,.53,1.73.05,2.39-1.67,4.85-3.25,7.18-5,1.76-1.33,3.68-2.46,5.5-3.71a2.09,2.09,0,0,0,1.12-1.71,19.54,19.54,0,0,0-.12-3.4,77.79,77.79,0,0,1-1.49-9.31C347.48,65.76,346.82,62.75,346.32,59.22Zm121.23,87.85c-.62-1.34-1.81-1.76-2.73-2.43-4.3-3.15-8.54-6.4-13-9.29-3-2-5.75-4.27-8.74-6.24-2.37-1.56-4.63-3.27-7-4.85a2.6,2.6,0,0,0-2.51-.54c-2.83,1-5.46,2.55-8.34,3.48s-5.61,2.95-8.7,3.76c-.27.07-.6.12-.6.49s.3.45.58.53l2.45.67a60.89,60.89,0,0,1,6.79,1.93c2.86,1.16,5.85,1.83,8.75,2.83,2.4.82,4.89,1.35,7.32,2.08,3.28,1,6.54,2,9.8,3.06,3.73,1.16,7.57,1.92,11.25,3.28A13.62,13.62,0,0,0,467.56,147.07Zm15.26-94.42c-.1-.17-.2-.38-.33-.57-2.16-3.16-4.6-6.09-7-9a1.05,1.05,0,0,0-1.5-.23,28.71,28.71,0,0,1-3.51,1.84c-3.46,1.29-6.48,3.54-10,4.66a1.13,1.13,0,0,0-.87,1.53c1.2,3.74,1.19,7.7,1.94,11.54.55,2.83,1,5.73,1.34,8.62.1,1,.62,1.15,1.35.69a9.28,9.28,0,0,0,1.62-1.37c1.25-1.28,2.45-2.62,3.71-3.89q6.2-6.25,12.43-12.47C482.3,53.59,482.78,53.3,482.82,52.65Zm-95.21,70.62a16.7,16.7,0,0,0-1.95-4.62q-3.33-6.57-6.45-13.24c-1.27-2.69-3.12-5.07-4.14-7.9-.38-1-1.09-.63-1.67-.09q-4.71,4.4-9.41,8.82a34,34,0,0,1-2.59,2.39,27.26,27.26,0,0,0-3.56,3.46c-1.1,1.23-.73,2.12.87,2.4a11.39,11.39,0,0,1,1.64.46c1.87.64,3.71,1.43,5.62,1.91,3.87,1,7.7,2.13,11.53,3.25C380.8,121.09,384.07,122.16,387.62,123.27Zm60.32-49c2.06.11,3.86-.51,5.68-.78s3.9-.45,5.84-.84,2.13-.43,1.75-2.41a32.63,32.63,0,0,1-.93-5.13c-.14-4.46-1.67-8.7-1.9-13.14-.07-1.31-.67-1.44-1.8-.84-3,1.6-6.09,3.18-9.16,4.71-1.85.92-3.74,1.74-5.64,2.55a1.53,1.53,0,0,0-1,2.12c1.43,3.94,2.91,7.86,4.32,11.8C445.59,73.77,446.41,74.65,447.93,74.25Zm3.15,13.17a10.35,10.35,0,0,0,.33,1.06c.77,1.93,1.68,3.81,2.3,5.78.82,2.62,2.24,5,3,7.62a60.71,60.71,0,0,0,3,7.47,1.32,1.32,0,0,0,2,.8c1.64-.73,3.3-1.42,5-2.09.49-.2.72-.6.54-1a13.93,13.93,0,0,1-.6-3.62c-.51-3-1-6-1.62-9-.45-2.22-.58-4.49-.92-6.73-.3-2-1-3.81-1.14-5.82a28.52,28.52,0,0,0-.67-5.2c-.16-.59-.31-1.1-1-.43l-9.67,9.6A1.77,1.77,0,0,0,451.09,87.42Zm95.68,11.84a4.73,4.73,0,0,0-.23-1.34c-1.45-2.77-2.64-5.65-3.9-8.51-.44-1-.72-.86-1.28,0-2.76,4.05-5.57,8.07-8.38,12.1a4,4,0,0,0-.51,3.78,6.54,6.54,0,0,1,.31,1.08,79.5,79.5,0,0,0,2.73,11.79c.54,1.73.56,1.72,2.35,1.17.81-.25,1.65-.42,2.43-.74s1.73-.5,2-1.43c.56-1.8,1.05-3.62,1.51-5.45.55-2.19,1-4.39,1.55-6.59C545.84,103.11,546.31,101.15,546.77,99.26ZM500,38.21c-.76,0-1.09.39-1.51.7C497,40,496,41.54,494.71,42.75c-2.79,2.56-5.39,5.3-8.09,7.94-1.05,1-1.09,1.77-.2,2.86q3,3.62,5.79,7.34c.84,1.1,1.55,2.15,3.17,1.22a2.53,2.53,0,0,1,1.4-.09,1.85,1.85,0,0,0,2.14-1.41c1.86-5.13,3.83-10.22,5.57-15.39.64-1.9,2.23-4.18-1.05-5.59C502.23,39.11,501,38.66,500,38.21ZM361,117.69a2.07,2.07,0,0,0,1,1.37c1.31,1,2.66,1.93,3.94,3,4,3.23,8,6.48,12,9.71q5.24,4.21,10.46,8.48c3.65,3,7.33,6,11,8.92.49.39,1.05,1.25,1.61.81s-.2-1.19-.45-1.74c-2-4.28-4.56-8.29-6.3-12.7a9.92,9.92,0,0,0-5.71-5.56c-2.64-1.15-5.28-2.3-7.87-3.55-5.4-2.62-11-4.74-16.35-7.52A16.09,16.09,0,0,0,361,117.69ZM515.13,26.34l5.6,12.73c1.35,3.06,2.67,6.13,4.06,9.17.44,1,.72,2.19,1.84,2.59,2.25.81,4.11,2.32,6.24,3.32a33,33,0,0,1,4.45,2.18c3.43,2.3,7.28,3.82,10.8,5.93a27.74,27.74,0,0,0,2.79,1.3l.28-.36Zm-31.88,74.54c3.14-1.06,5.61-2.66,8.31-3.75,3.55-1.44,6.8-3.5,10.41-4.79.58-.21,1-.59.77-1.3-1.44-5.06-2.89-10.12-4.31-15.19-.19-.68-.29-1.34-1.2-1.27s-2.17-.36-2.76.91c-1.82,3.9-3.67,7.78-5.44,11.7-1.51,3.36-2.67,6.86-4.42,10.12A30.68,30.68,0,0,0,483.24,100.87ZM349.62,74.16c-.24,2.16.59,3.84.67,5.65,0,1,.57,1.58,1.81.81,1-.63,1.86-1.45,2.86-2.08,2.19-1.4,4.34-2.86,6.49-4.32.73-.49,1.35-1.06.83-2.11q-4.43-8.81-8.83-17.64c-.36-.72-.83-.88-1.44-.27l-4.21,4.23a1,1,0,0,0-.25,1.29,6.28,6.28,0,0,1,.33,2.51,52.29,52.29,0,0,0,.72,5.6C349.08,70,349.23,72.27,349.62,74.16ZM508.84,23.23c-4.71-.68-9.28-2-14-2.52A18.12,18.12,0,0,1,491,20a28.58,28.58,0,0,0-7.06-1.47c-3.46-.25-6.69-1.45-10.09-1.86-2-.24-4-1-6.07-1.22a69.9,69.9,0,0,1-9.4-1.7c-.37-.1-.95-.29-1.13.21s.34.6.68.77c2.21,1.15,4.42,2.32,6.64,3.45,4.79,2.43,9.77,4.52,14.25,7.56a4.82,4.82,0,0,0,2.69.73c1.3,0,2.52-.53,3.75-.53,2.85,0,5.6-.93,8.46-.69a2,2,0,0,0,1-.18,15.3,15.3,0,0,1,6.39-1C503.72,24.13,506.22,23.38,508.84,23.23ZM479.75,148.39a8.71,8.71,0,0,0,1.06.12,47.62,47.62,0,0,0,7.52-1c1.66-.32,3.32-.74,5-.91,2.77-.28,5.53-.59,8.28-1,1.75-.27,3.48-.89,5.3-.74a10.8,10.8,0,0,0,3.22-.43,1.78,1.78,0,0,0,1.57-2,23.45,23.45,0,0,1,.4-4.34,41.83,41.83,0,0,0,.72-5c.09-1.62-1.09-2.32-2.51-1.55-1.87,1-3.66,2.16-5.53,3.17-3.35,1.81-6.76,3.52-10.09,5.36C489.76,142.71,484.89,145.49,479.75,148.39ZM353.49,109.25c.28-1.05-.58-2-.52-3.11a32.81,32.81,0,0,0-.73-6.15c-.43-3.16-1.22-6.29-1.46-9.49a22.48,22.48,0,0,0-.8-5.3c-.29-.91-.46-1-1.27-.47-3.95,2.73-7.94,5.4-11.91,8.09-.95.64-1.06,1.21-.15,2.1,5.08,5,10.11,10.09,15.15,15.15a6.89,6.89,0,0,0,.73.67c.54.4.88.25,1-.42A10.5,10.5,0,0,0,353.49,109.25Zm154.56,55-.28-.16c-.56,1.22-1.12,2.43-1.67,3.65-2.42,5.37-5,10.67-7.15,16.16-1.75,4.43-3.91,8.69-5.88,13-.22.47-.51,1-.23,1.48a57.58,57.58,0,0,1,2.49,6.46c.17.43.4.82.91.72q1.94-.37,3.85-.85c.43-.11.43-.56.53-.93.59-2.28.79-4.63,1.26-6.92.7-3.39,1.24-6.82,2-10.2s1.05-6.86,1.84-10.25,1.15-7.17,2.11-10.68A9.61,9.61,0,0,0,508.05,164.28ZM345.39,29.09a83.14,83.14,0,0,0,8.83,2.42q6.48,1.69,12.93,3.51c1.62.46,3.17.92,4.88-.52,3.07-2.59,5.82-5.5,8.83-8.14a11.86,11.86,0,0,0,2.63-2.64,25.71,25.71,0,0,0-5.32.38c-3.83.64-7.68,1.17-11.52,1.78s-7.9,1-11.82,1.72C351.78,28.15,348.7,28.57,345.39,29.09ZM467.75,71.43a69.42,69.42,0,0,1,7.11-1.3c4.42-.37,8.71-1.53,13.12-1.91a12.27,12.27,0,0,0,1.8-.43.94.94,0,0,0,.83-1,3.79,3.79,0,0,1,.68-2,1.3,1.3,0,0,0-.15-1.76c-.84-.94-1.55-2-2.32-3-1.39-1.79-2.8-3.56-4.19-5.36-.53-.68-1-.74-1.6-.08-1,1-2.09,1.92-3.12,2.89-4.39,4.11-8.3,8.7-12.75,12.75-.27.24-.69.51-.54.91S467.29,71.35,467.75,71.43ZM357,48.26a6.48,6.48,0,0,0,.6-.5,12.1,12.1,0,0,1,1.78-1.83c3.39-2.21,5.76-5.57,9-7.93,1.38-1,1.15-1.59-.54-2.05-3-.83-6.11-1.52-9.17-2.23-4.35-1-8.55-2.56-12.95-3.36-.67-.12-1.26-.18-1.67.37s.22,1,.54,1.42c1.65,2.18,3.44,4.27,4.95,6.54,2.09,3.14,4.64,5.92,6.76,9C356.44,48,356.56,48.25,357,48.26Zm106.34-18.9c-2,.11-3.88,1.12-6,.89a.78.78,0,0,0-.77,1.1c.57,1.69.31,3.45.58,5.17.3,2,.84,3.85,1.18,5.79.31,1.77.34,3.56.72,5.31.21.95.65,1.29,1.46.69a28.94,28.94,0,0,1,4.77-2.47c2.5-1.22,5-2.49,7.52-3.65,1.28-.59,1.34-.74.51-1.87-2.39-3.28-5.23-6.19-7.43-9.61A2.35,2.35,0,0,0,463.31,29.36Zm-45.19,5.48c-3.13.17-6.23.58-9.34.94-4.1.47-8.2,1.05-12.33,1.26-1.2.06-2.13.53-2.36,1.63a25,25,0,0,0-.69,3.18c-.23,3.24-1.11,6.39-1.43,9.61,0,.44-.58,1-.07,1.28s1,0,1.44-.38c2.28-1.84,4.92-3.17,7.23-5,3.37-2.6,7-4.85,10.45-7.29A87.12,87.12,0,0,0,418.12,34.84Zm-75.3-1.63c-1.1,1.44-1.1,3-1.46,4.4-.76,3-1.38,5.94-2.08,8.91-.45,1.92-.93,3.83-1.39,5.74s-.8,4.07-1.35,6c-1,3.43-1.34,7-2.77,10.32a.75.75,0,0,0,.1.65c.2.23.42,0,.59-.15s.48-.45.72-.68c3.12-2.9,6.26-5.76,9.38-8.66,1.23-1.14,2.21-2,1.31-3.7-.14-.27,0-.66-.05-1-.25-2-.48-4-.77-6a47,47,0,0,1-.87-5.26c-.07-2.22-.68-4.36-.75-6.59A29.7,29.7,0,0,0,342.82,33.21Zm169.6,109.09c-.2,1.49,0,1.73,1.16,1.54a34.66,34.66,0,0,1,4.73-.66c3.7-.09,7.28-1.05,10.95-1.35,1.44-.12,3.14-.16,4.45-1.15.42-.32,1.22-.31,1.19-1.05s-.66-.85-1.17-1.1c-4-1.88-8-3.63-12-5.48-2-1-4.1-2.76-6.79-1.33-.79.42-1.23.76-1.23,1.61a17.52,17.52,0,0,1-.41,3.36C512.93,138.69,513.13,140.82,512.42,142.29ZM398.8,126.6c.28-.41,0-.67-.12-1-1-2.74-2.12-5.44-3.21-8.15-1.42-3.53-2.28-7.28-3.75-10.79-1.8-4.3-3.18-8.75-4.82-13.11a1.36,1.36,0,0,0-1.53-1.08c-1.56,0-3.07.08-4.47-.95-.92-.67-1.48.47-2.14.92s-.41.9-.1,1.38c1.35,2.06,2.48,4.24,3.68,6.38q4.67,8.33,9.43,16.61c.47.81,1.15,1.52,1.53,2.36a62.26,62.26,0,0,0,3,5.63A3.59,3.59,0,0,0,398.8,126.6Zm-8.93,16.48a2.57,2.57,0,0,0-1.26-1.69c-3.43-2.12-6.38-4.88-9.57-7.32-4-3-7.84-6.21-11.7-9.39-3.35-2.76-6.86-5.33-10.06-8.26a2.26,2.26,0,0,0-2.11-.51c-1.6.29-2.69-.24-3-1.77-.2-1.09-.82-1.42-1.67-1.77-4.11-1.69-8.22-3.38-12.3-5.12-1.61-.69-3.15-1.53-4.73-2.28-.39-.19-.95-.41-1.17,0s.32.68.67.88a18,18,0,0,1,2.68,1.59c3.21,2.75,7.07,4.51,10.5,6.94s6.86,4.52,10.27,6.79c5.11,3.39,10.19,6.83,15.33,10.19,3.59,2.35,7.13,4.79,10.78,7.06C385,139.88,387.12,141.73,389.87,143.08ZM531.25,100c.13-.07.23-.1.27-.16q4.5-6.74,9-13.49a1.46,1.46,0,0,0,0-1.49c-1-2.06-1.92-4.1-2.82-6.19-.54-1.26-1.34-1.43-2.48-.88C532.8,78.88,530.4,80,528,81.1a1.44,1.44,0,0,0-.75,2c.37,1.16.71,2.34,1,3.53.5,2.2.9,4.42,1.4,6.61S530.69,97.67,531.25,100Zm6.64,34c-.22-1.1-.55-2.76-.9-4.4-.45-2.07-1-4.12-1.36-6.21-.27-1.53-.77-1.87-2.3-1.34-3.11,1.09-6.24,2.15-9.36,3.21-1.78.6-3.59,1.16-5.36,1.79-.51.18-1.11.44-1.06,1.16,0,.47.34.71.78.9,3.29,1.41,6.6,2.8,9.85,4.29a74.58,74.58,0,0,0,7,3.15C537.15,137.26,537.9,136.63,537.88,134ZM380.63,44.52a13,13,0,0,0,0,2.12c.67,4,.83,8,1.62,12,.18.9.4.89,1.05.44,1.16-.81,2.36-1.57,3.54-2.35a3.08,3.08,0,0,0,1.67-3,4.87,4.87,0,0,1,.28-1.66,39.48,39.48,0,0,0,.84-4.42,76.2,76.2,0,0,1,1.4-8.47c.33-1.38,0-1.78-1.32-1.5a44,44,0,0,1-8.64,1.08c-1,0-1.17.42-1.11,1.32C380.08,41.57,380.94,43,380.63,44.52ZM492.45,34.09a8,8,0,0,0-1.15.34L477.66,41c-.46.22-.75.44-.31.93,2.33,2.55,4,5.57,6.39,8.11.79.86,1.37.9,2.16,0,2.14-2.39,4.3-4.76,6.53-7.06,1.64-1.69,3.42-3.26,5.12-4.9.26-.25.86-.6.3-1A19.1,19.1,0,0,0,492.45,34.09Zm-24.7-4.88a4.21,4.21,0,0,0,.91,1.46c2.25,2.91,4.55,5.78,6.7,8.77.69,1,1.19,1.09,2.19.58,3.92-2,7.87-3.92,11.8-5.9.44-.22,1.2-.3,1.16-.88s-.71-.7-1.14-1c-.2-.13-.41-.23-.62-.35-2.46-1.41-5.2-2.27-7.49-4a2.55,2.55,0,0,0-1.37-.29c-1.59-.18-3.07.47-4.61.56C472.76,28.34,470.31,28.86,467.75,29.21Zm67,90.77c0-.11-.07-.2-.09-.29-1.21-4.73-2-9.56-3.39-14.24,0-.17-.15-.39-.29-.44s-.39.16-.52.35l-1.72,2.6q-2.73,4.12-5.46,8.24-3.14,4.71-6.3,9.41c-.13.2-.27.4-.12.64a.52.52,0,0,0,.73.2c.91-.37,1.83-.75,2.76-1.07l13.52-4.62C534.29,120.63,534.75,120.5,534.79,120ZM459.27,145.9a22.29,22.29,0,0,1-4.53-1.45c-4.42-1.49-8.91-2.74-13.39-4-3-.86-6-2.07-9-2.89-4.44-1.2-8.88-2.34-13.22-3.87-1.78-.63-3.7-1.53-5.46-1.16-2.46.51-4.76,1.77-7.13,2.72-.27.11-.55.3-.49.62s.42.32.7.37c.84.14,1.68.25,2.52.42,2.12.42,4.21,1,6.35,1.27,2.58.29,5.08.92,7.6,1.44s5,.85,7.45,1.43,4.82.77,7.18,1.39c2.55.67,5.18.85,7.74,1.46s5.14,1.12,7.74,1.55A25.65,25.65,0,0,0,459.27,145.9ZM446.58,13.67c-2.78.57-5.8,1-8.82,1.41a39.22,39.22,0,0,0-3.92.45,38.36,38.36,0,0,1-6.94,1.16,7.56,7.56,0,0,0-1.37.3c-1.15.27-1.28.87-.83,1.88,1.07,2.42,1.75,5,2.93,7.38.89,1.79,1,2,2.72.69,2.16-1.61,4.4-3.1,6.61-4.62,3.42-2.35,6.84-4.73,10.35-6.95a4.64,4.64,0,0,0,.91-.67c.41-.43.26-.8-.29-.93A8.5,8.5,0,0,0,446.58,13.67ZM372.13,36a54.9,54.9,0,0,0,6.29,2,1.41,1.41,0,0,0,1.44-.36,54.61,54.61,0,0,1,5.78-4.54c2.2-1.54,4-3.54,6.4-4.88a1.57,1.57,0,0,0,1-1.31,14.36,14.36,0,0,1,.69-3.6c.28-1.28-.34-1.66-1.35-1.34a23.39,23.39,0,0,1-4.46.61A4.75,4.75,0,0,0,385,24c-2.28,2.32-5,4.19-7.14,6.64C376.18,32.6,373.71,33.73,372.13,36Zm155,16.6c1.68,4.56,3.86,8.55,5.58,12.74a1.69,1.69,0,0,0,2.38,1.09,9.72,9.72,0,0,1,3.23-.39h14C544,61.5,536,56.51,527.14,52.59Zm-43.3,96.68,0-.14a5.89,5.89,0,0,0-1,0c-.41.07-1.12-.28-1.15.4,0,.53.63.7,1.1.64,2-.24,3.84.42,5.73.71a41.77,41.77,0,0,1,4.59.65c2.06.56,4.18.47,6.26.89s4.09.56,6.08,1.08,4.24-.16,4.66-1.65a44.64,44.64,0,0,0,1-5.67c.1-.67-.23-.81-.95-.75-2.25.21-4.45.7-6.69,1-1.77.2-3.56.27-5.32.59a35,35,0,0,1-7.4,1,4.65,4.65,0,0,0-1,.15ZM437.49,31.48c2.62-.64,5.22-.51,7.78-.94a31.64,31.64,0,0,1,7.87-.69c1,.08,1.41-.49,1.41-1.52a32.59,32.59,0,0,0-.84-5.72c-.27-1.48-.06-3-.69-4.46s-2.08-1.77-3.12-.57c-2.7,3.12-5.62,6-8.45,9C440,28.08,438.4,29.42,437.49,31.48ZM340.11,38l-.33-.12c-.24.49-.52,1-.73,1.48-2.41,5.93-4.41,12-7.08,17.85-1.92,4.2-3.5,8.54-5,12.89-.8,2.28-2,4.37-2.76,6.66-.14.45-.45,1,0,1.31s.71-.28,1-.53c2.32-1.86,4.16-4.27,6.66-5.94a1.46,1.46,0,0,0,.54-.8c.43-1.73.88-3.46,1.18-5.21.52-3,1.68-5.86,2.19-8.88.33-2,1.07-3.89,1.34-5.92a23.23,23.23,0,0,1,1.32-5.18A30.14,30.14,0,0,0,340.11,38Zm53.39-23.92c-13.86,4-27.54,8.38-41.27,12.57a1.58,1.58,0,0,0,1.45.27c3.09-.54,6.17-1.32,9.28-1.55,3.63-.28,7.1-1.3,10.69-1.72,1.14-.14,2.3.16,3.38-.17a46.42,46.42,0,0,1,6.85-1.18,4.83,4.83,0,0,0,2.94-1.5,22,22,0,0,1,3.27-2.92A11,11,0,0,0,393.51,14.12ZM350.86,111.4a24.8,24.8,0,0,0-4-4.26c-3.93-4-7.9-7.89-11.85-11.83a1.23,1.23,0,0,0-1.77-.18c-2.15,1.52-4.32,3-6.46,4.55-.75.54-.66,1.09.12,1.53a13.53,13.53,0,0,0,1.29.59c3.17,1.33,6.38,2.57,9.51,4C342,107.78,346.55,109.32,350.86,111.4Zm43.05,13.82c.65,0,1,.16,1.17-.12s-.11-.71-.3-1c-2.33-3.78-4.49-7.67-6.65-11.54-3.2-5.73-6.76-11.25-9.58-17.2-.79-1.68-1.66-1.68-2.81-.24-.59.74-.08,1.27.21,1.8,2,3.64,3.77,7.42,5.6,11.15,2.27,4.62,4.69,9.16,6.91,13.8C389.71,124.42,392.27,124.23,393.91,125.21Zm78.54,17.15a10.34,10.34,0,0,0-.2-3,25.79,25.79,0,0,1-.88-4.42c-.1-2-.66-3.89-.76-5.88a15.83,15.83,0,0,0-.6-3.6,29,29,0,0,1-.9-5.68c-.16-1.84-.5-3.66-.84-5.43-.24-1.3-.09-2.74-.8-4-.32-.56-.63-.95-1.32-.64-1.38.61-2.76,1.23-4.15,1.83a1.37,1.37,0,0,0-.76,2c2,5.42,4,10.86,6.15,16.23,1,2.41,2,4.75,2.84,7.23A21,21,0,0,0,472.45,142.37ZM554.24,73.6a6.3,6.3,0,0,0-.65,2.08c-.73,2.57-1.49,5.15-2,7.78-.7,3.76-1.79,7.41-2.62,11.13-.34,1.53-1.27,3.1-.6,4.68,1.76,4.13,3.56,8.24,5.84,12.6ZM378.41,89.36l-.22-.49a7.42,7.42,0,0,1,1.12-7.94c.45-.58.26-1-.13-1.5-2.26-3-4.5-5.93-6.7-8.93a1.6,1.6,0,0,0-2.6-.36,23.6,23.6,0,0,1-2.26,1.46c-1,.57-.93,1.26-.36,2.1s1.31,2,1.9,3c2.51,4.42,5,8.86,7.49,13.28.17.3.25,1,.87.62A1.49,1.49,0,0,0,378.41,89.36ZM519.5,48.43a10.92,10.92,0,0,0,.68,4.07c1,4.05,2,8.1,2.71,12.21.23,1.24.76,2,2.27,1.91s3.12,0,4.68,0c2.51,0,2.46,0,1.35-2.36-1.87-4-4-7.82-5.61-11.91a2.16,2.16,0,0,0-.9-1.23C523,50.2,521.34,49.37,519.5,48.43Zm-11,119c.08,1.41-.68,2.63-.79,4a46.77,46.77,0,0,1-.79,4.92c-.48,2.49-1,5-1.51,7.45-.63,3-.78,6.16-1.68,9.15a34.59,34.59,0,0,0-1.17,5.68,20.48,20.48,0,0,1-.81,4.68,2.12,2.12,0,0,0,.84,2.85c.55.45,1.06.94,1.61,1.38s.87,1,1.43.76.6-1,.63-1.63a61.3,61.3,0,0,1,.56-9.15c.47-2.52.13-5.13.48-7.74.42-3.15.19-6.4.76-9.57.4-2.23-.07-4.47.39-6.75A12.6,12.6,0,0,0,508.54,167.45Zm19.93-99.39h0c-1,0-2,0-3,0s-1.45.26-1.3,1.47c.43,3.52,2,6.76,2.37,10.29.07.7.6.7,1.05.41,2.41-1.51,5.13-2.37,7.64-3.66a1.27,1.27,0,0,0,.56-2,24.48,24.48,0,0,1-1.57-3.47c-1.19-3.12-1.25-3.1-4.64-3ZM382,67.22a13.18,13.18,0,0,0-.45-3.78c-.14-.63-.29-1-1-.47-2.31,1.57-4.61,3.15-7,4.58-1.31.78-.87,1.37-.24,2.33,2,3,4.65,5.59,6.69,8.61.67,1,1.45.77,2.36.47s1-1,.88-1.79C382.93,73.94,382.1,70.78,382,67.22ZM517.48,46c-.54-2.61-1-4.93-1.49-7.24-.45-2.06-1-4.11-1.46-6.16A30.09,30.09,0,0,1,513.35,27a.76.76,0,0,0-.57-.74c-.52-.1-.39.41-.5.67-.36.82-.78,1.62-1.07,2.46C510,32.72,509,36,507.77,39.3c-.43,1.18,0,1.71,1,2.22C511.52,43,514.43,44.11,517.48,46ZM482.16,27.22a10,10,0,0,0,.93.72q4.34,2.38,8.81,4.49a1.49,1.49,0,0,0,1.45-.2l9.19-4.43c2.17-1.05,4.51-1.81,6.4-3.47a20.85,20.85,0,0,1-5.32.49,2.26,2.26,0,0,0-.84.08c-2.34.89-4.84.65-7.24.91s-5.05.6-7.57.88C486.18,26.89,484.34,26.94,482.16,27.22ZM370.21,67.66a2.09,2.09,0,0,0-.23-.43c-1.74-2.05-3.13-4.37-4.79-6.47-2.63-3.32-5.17-6.7-7.71-10.08-.45-.6-.86-.77-1.49-.19a1.65,1.65,0,0,0-.25,2.28c1.64,3.14,3.48,6.17,5.11,9.3,1.39,2.67,3.06,5.19,4.28,7.95.33.76.88,1.06,1.57.62,1.08-.68,2.08-1.47,3.11-2.21A.81.81,0,0,0,370.21,67.66ZM478.86,26.82,456.61,15l-.29.38c1.05,1.59,2.61,2.77,3.71,4.33,1.72,2.42,3.67,4.67,5.44,7,1.1,1.48,1.79,1.78,3.56,1.2a3.12,3.12,0,0,1,1.09-.27c2.7.16,5.3-1,8-.67A3,3,0,0,0,478.86,26.82Zm74.28,45.45a1.29,1.29,0,0,0-1,.78c-2.59,4.5-5.71,8.65-8.7,12.89-.37.52-.87,1.07-.49,1.81,1.33,2.55,2.27,5.28,3.74,7.76.14.23.21.58.56.55s.46-.31.53-.6c.39-1.64.91-3.27,1.14-4.94.55-4,2-7.74,2.73-11.67C552,76.69,552.61,74.56,553.14,72.27Zm-23.2,70.63a5.77,5.77,0,0,0-1.66,0c-2.11.86-4.38.46-6.56.91a20.51,20.51,0,0,1-4.43.7c-1.54,0-2.92.71-4.45.7-.75,0-1,.71-1.07,1.45a12.35,12.35,0,0,1-.49,4.33,1.54,1.54,0,0,0,.29,1.85,1.86,1.86,0,0,0,2-.12c2.09-1.09,4-2.47,6.06-3.61C523.05,147.21,526.21,144.91,529.94,142.9ZM537,68c-.57,0-1.14,0-1.71,0-1,0-1.4.25-.78,1.21a18.15,18.15,0,0,1,1.72,3.88c.65,1.84,1.48,2.28,3,1.58,4.08-1.85,8.13-3.78,12.19-5.69.51-.24,1.2-.61,1.07-1.18s-.9-.31-1.37-.31C546.45,67.56,541.71,67.14,537,68Zm10.63,32.81c-.83,3-1.71,6.1-2.51,9.18-.46,1.77-.82,3.56-1.18,5.35-.24,1.19.2,1.78,1.14,1.47,2.46-.79,4.9-1.67,7.34-2.52.88-.31,1.1-.76.64-1.71C551.2,108.7,549.88,104.55,547.66,100.81Zm-8.28,34,.24.13,13.45-19.68c-3.59.75-6.36,2.32-9.35,3.26-.54.17-.79.78-.92,1.36Zm-127.21-122c-.52-.47-1.06-.29-1.56-.3-2.56,0-5.11,0-7.67,0-1.28,0-2.32.11-2.85,1.5A2.87,2.87,0,0,1,399,15.15c-1.4,1-1.66,2.42-1.66,4,0,.65.25.88.95.88,1.81,0,3.49-.82,5.3-.75.28,0,.58-.28.85-.46,1.79-1.15,3.22-2.76,5.09-3.81A18.91,18.91,0,0,0,412.17,12.86Zm139,57.52c-2.64.8-4.61,2.37-6.89,3.25-1.83.7-3.46,1.74-5.22,2.54-.61.27-.92.65-.62,1.33.88,2,1.79,4.06,2.63,6.11.46,1.13.75.7,1.22,0,1.71-2.55,3.52-5,5.2-7.6A44.37,44.37,0,0,0,551.12,70.38Zm-206.67-34c-.29.93-.36,1.49-.12,1.93a11.37,11.37,0,0,1,1.1,5.36c.07,3.82,1.4,7.44,1.33,11.24a4.2,4.2,0,0,0,.17,1c.21.91.64,1.12,1.36.43l3.5-3.33a1.2,1.2,0,0,0,.18-1.74,30.64,30.64,0,0,1-2.44-4.48C348.1,43.35,346.21,40.13,344.44,36.43Zm58.38,113.5a1.37,1.37,0,0,0,.17-1.29c-.87-2.36-.52-4.74-.26-7.13.34-3-.6-5.15-3-6.27-1.36-.65-2.72-1.32-4.08-2-.46-.22-1-.72-1.42-.36s.16.94.36,1.36c2.4,5,5.2,9.85,7.46,14.94C402.23,149.5,402.35,149.82,402.82,149.93Zm57.35-74.21a17.62,17.62,0,0,0-1.94,0c-2.79.38-5.59.71-8.35,1.21-2.37.43-2.33.51-1.68,2.94a15.62,15.62,0,0,0,1.06,2.92c.39.78.59,2.07,1.17,2.26.8.27,1.43-.91,2-1.5C455,81.1,457.43,78.54,460.18,75.72ZM406.54,18.51a3.09,3.09,0,0,0,2.27.11,20.65,20.65,0,0,1,5.39-.91c1.86-.08,3.59-.75,5.45-.77.66,0,1.33-.41,2-.47.53,0,.67-.44.65-.92a3.15,3.15,0,0,0-3-3h-4a2.75,2.75,0,0,0-1.63.37C411.18,14.6,409.08,16.8,406.54,18.51Zm54.66,10.24c.38,0,.76,0,1.14,0s1.05.22,1.27-.32-.3-.77-.59-1.06c-1.53-1.56-2.49-3.55-4-5.15-1.35-1.43-2.44-3.11-3.66-4.67-.26-.33-.5-.76-1-.54-.26.11-.18.37-.14.62.52,3.34,1.19,6.66,1.52,10a1.6,1.6,0,0,0,2.4,1.51A8.36,8.36,0,0,1,461.21,28.75Zm-94.74,89.68c8.38,3.65,16.55,7.19,24.56,11.18a13.25,13.25,0,0,0-1.86-4,4.1,4.1,0,0,0-2.27-1.59c-2.27-.63-4.59-1.14-6.8-1.87-3.94-1.31-8-2.28-11.85-3.85A1.85,1.85,0,0,0,366.47,118.42ZM511.05,26.86c-.59-.1-.75.25-1,.44-2.3,1.75-4.14,4-6.23,6a17.35,17.35,0,0,0-2.57,2.8c-.43.63-.35,1,.17,1.43a24.22,24.22,0,0,0,3.58,2c1,.57,1.54.15,1.86-.74.38-1.06.57-2.2,1-3.22A63.67,63.67,0,0,0,511.05,26.86ZM384.12,77.5c1.15-1.21.92-2.73,1.09-4.15.39-3.32,1.37-6.54,1.75-9.88a18.94,18.94,0,0,1,.7-4.15c.13-.36.39-.75,0-1s-.79.1-1.09.38a17.77,17.77,0,0,1-3.24,2.27,1.3,1.3,0,0,0-.68,1.49c.21,2.45.49,4.88.73,7.32S384.39,74.84,384.12,77.5ZM331.8,73a.55.55,0,0,0-.68.22c-1.66,1.81-3.57,3.36-5.36,5a3.73,3.73,0,0,0,0,5.76c.43.44.85.89,1.3,1.3s.68,1.08,1.32.91c.8-.21.46-1,.58-1.59a4,4,0,0,1,.17-.83c1.2-2.69,1.29-5.65,2.13-8.44C331.45,74.59,332,73.83,331.8,73Zm44.46,18.74a2,2,0,0,0-.12-.41c-1-1.86-2-3.77-3.08-5.57-2.32-3.73-4.52-7.53-6.56-11.42-.27-.52-.31-1.35-1.2-1s-.61,1-.28,1.66c2.92,5.82,5.83,11.66,8.77,17.47.16.32.18,1.14.91.73S376.15,92.64,376.25,91.71ZM509.19,26c-.57.17-.74.22-.9.28-2.13.79-4,2.11-6.12,2.94-2.61,1-5,2.47-7.49,3.72-.7.35-.56.57,0,1,1.09.78,2.39,1.13,3.53,1.81a1.51,1.51,0,0,0,2.14-.33q2.46-2.65,5-5.25A41.74,41.74,0,0,0,509.19,26Zm-4,184a.93.93,0,0,0-.38-.73c-1.2-1-2.4-2-3.64-2.93-.32-.25-.76-.58-1.17-.42a11.41,11.41,0,0,1-3.2.51.7.7,0,0,0-.6,1c1,1.8,1.15,3.88,2,5.71.52,1.07,1.12,1.33,2.1.61l4.33-3.17C504.89,210.43,505.16,210.29,505.18,210ZM444,19.45a5.15,5.15,0,0,0-.85.3l-13.43,9.19a1.46,1.46,0,0,0-.58,2c.65,1.55,2.36,1.84,3.65.53q4.87-5,9.66-10C443,20.92,443.36,20.3,444,19.45ZM515.58,30.6c-.41,1.2.29,2,.4,2.95.45,3.84,1.87,7.47,2.52,11.28a3.28,3.28,0,0,0,2,2.66,14.25,14.25,0,0,1,2.17,1.31c.28.18.56.45.89.22s.15-.65,0-1C521.16,42.18,518.31,36.53,515.58,30.6ZM327.92,89.12a2,2,0,0,0-.73-1.8c-1.09-1-2.16-2.12-3.25-3.18-.29-.29-.6-.81-1-.56s-.41.95-.21,1.42a4.29,4.29,0,0,1,.68,1.83c-.12,3.79.9,7.47,1.14,11.22,0,.33,0,.71.46.77s.62-.29.67-.6a58.85,58.85,0,0,1,2.24-8.85A1.46,1.46,0,0,0,327.92,89.12ZM442.83,13.23c-3.35.06-6.68-.72-10-.33a20.78,20.78,0,0,1-7.32-.2,12.44,12.44,0,0,0-2.54-.14c-.31,0-.75,0-.63.49a11.56,11.56,0,0,0,1.21,3c.19.34.51.26.87.19a65.17,65.17,0,0,1,8.31-1.34C436.17,14.76,439.39,13.45,442.83,13.23Zm-60.73,24,0,.34c.46,0,.91,0,1.37,0,1.9.17,3.73-.38,5.6-.53,2.24-.18,2.75-.58,2.82-2.87a8,8,0,0,1,.48-3.47.74.74,0,0,0-.09-.93c-.4-.3-.68.11-1,.33Zm61.28-25.65c-2.26.06-4.39-1-6.67-.74a4.23,4.23,0,0,1-1.25-.17c-1.75-.32-3.51-.61-5.25-1-2.27-.48-4.6-.38-6.87-.81a1.55,1.55,0,0,0-1.93,1.37c-.22,1,.55,1.41,1.48,1.46.33,0,.66,0,1,0a65.7,65.7,0,0,1,7.78.07C435.6,12.26,439.47,11.45,443.38,11.56Zm95.45,120.12c1.19-3.37,1.56-6.67,2.36-9.86.19-.74,1.06-1.72.32-2.32s-1.56.37-2.33.65c-2.76,1-2.75,1-2.18,3.91.05.28,0,.57.07.85A30.94,30.94,0,0,0,538.83,131.69Zm-139.39.9a1.32,1.32,0,0,0-.05-.16c-.89-1.76-1.63-3.69-3-5.1s-3.35-1.36-5-2c-.69-.27-1,.08-.77.92,1.26,4.07,4.56,5.65,8.21,6.8C399.16,133.14,399.48,133.06,399.44,132.59Zm94,74.33c-1.12-.28-2.08.65-3.24.57-.42,0-.91.07-1,.59s.35.63.65.84c2.07,1.47,4.38,2.58,6.29,4.3.2.18.49.4.76.22s.18-.6.08-.9c-.51-1.47-1-2.93-1.55-4.39A1.59,1.59,0,0,0,493.44,206.92ZM327.34,97.6a1.88,1.88,0,0,0,.38-.16l4.89-3.35a.63.63,0,0,0,.11-1.08c-1.05-1.09-2.11-2.17-3.21-3.2-.47-.44-.86-.31-1,.39A58.28,58.28,0,0,1,327,96.89C326.91,97.23,326.77,97.56,327.34,97.6Zm20.1-59.5c1.81,4,4.16,7.74,6.24,11.62.74,1.38,1.28.7,1.91,0a1,1,0,0,0,0-1.52,16.46,16.46,0,0,1-1.3-1.49A96.17,96.17,0,0,0,347.44,38.1Zm17.5,33.52a6.91,6.91,0,0,0-.36-.89c-.47-.82-1-1.58-1.44-2.42-1.77-3.76-4.36-7.06-6.14-10.82-.18-.37-.45-1-.86-.76-.56.29-.11.84.09,1.22.88,1.72,1.87,3.39,2.68,5.14,1.39,3,3.06,5.85,4.55,8.8.18.36.4.69.86.49A.93.93,0,0,0,364.94,71.62Zm127.15,128c-1.06,2.29-2.06,4.26-2.88,6.31-.4,1,.48,1,1.07.79a7,7,0,0,1,2.35-.44c1.59,0,2-.6,1.23-2A49.32,49.32,0,0,1,492.09,199.6ZM387.87,21.42l.07.36c1.71-1,3.55-.54,5.32-.85a1.1,1.1,0,0,0,.91-.8,14.92,14.92,0,0,0,.6-3.75c0-.65-.28-1.1-.94-.5C391.83,17.7,389.86,19.56,387.87,21.42Zm15.2-9.94,0,.24c2.83,0,5.66-.16,8.47.05,2.06.16,3.33-1.05,4.81-2,.2-.12.42-.31.34-.57S416.25,9,416,9c-.87.2-1.72.48-2.6.64C410,10.29,406.51,10.88,403.07,11.47Zm8,120-2.14-.68a2.09,2.09,0,0,0-2.14.37c-.81.73-1.6,1.48-2.38,2.24-.23.22-.54.49-.34.85s.59.25.89.13A35.4,35.4,0,0,0,411.11,131.44Zm-8.38-2.8c-.75,0-1.45.06-1.22.79.36,1.16.64,2.68,1.49,3.27,1,.71,1.61-1,2.41-1.55.38-.27.91-.85.21-1.25A25.87,25.87,0,0,0,402.72,128.64ZM401,21c-3.35-.39-4.18.33-4.32,3.64C398.15,23.45,399.85,22.66,401,21Z"/></g><g id="Layer_2" data-name="Layer 2"><rect x="240.17" y="226.33" width="354.33" height="30.74"/><rect x="-114.33" y="117.45" width="354.33" height="30.74"/><text class="cls-2" transform="translate(-68.45 19.89)"><tspan class="cls-3">E</tspan><tspan x="5.8" y="0">verybody</tspan><tspan class="cls-4" x="48.61" y="0"> </tspan><tspan x="52.16" y="0">is</tspan><tspan class="cls-5" x="59.1" y="0"> </tspan><tspan x="62.65" y="0">a</tspan><tspan class="cls-4" x="67.99" y="0"> </tspan><tspan x="71.54" y="0">designe</tspan><tspan class="cls-6" x="108.42" y="0">r</tspan><tspan class="cls-7" x="111.54" y="0">.</tspan><tspan class="cls-8" x="113.84" y="0"> </tspan><tspan class="cls-9" x="117.05" y="0">T</tspan><tspan x="122.57" y="0">h</tspan><tspan class="cls-10" x="128.4" y="0">a</tspan><tspan class="cls-11" x="133.64" y="0">t</tspan><tspan class="cls-12" x="137.05" y="0">’</tspan><tspan x="138.79" y="0">s</tspan><tspan class="cls-5" x="143.23" y="0"> </tspan><tspan x="146.78" y="0">my</tspan><tspan class="cls-4" x="160.49" y="0"> </tspan><tspan x="164.05" y="0">mant</tspan><tspan class="cls-13" x="187.2" y="0">r</tspan><tspan x="190.68" y="0">a</tspan><tspan class="cls-7" x="196.02" y="0">.</tspan><tspan class="cls-14" x="198.32" y="0"> </tspan><tspan class="cls-15" x="201.7" y="0">W</tspan><tspan x="211.06" y="0">e</tspan><tspan class="cls-4" x="216.78" y="0"> </tspan><tspan x="220.33" y="0">design</tspan><tspan class="cls-5" x="251.49" y="0"> </tspan><tspan x="255.04" y="0">to</tspan><tspan class="cls-4" x="264.32" y="0"> </tspan><tspan x="267.87" y="0">survive</tspan><tspan class="cls-16" x="299.7" y="0">.</tspan><tspan x="302" y="0"> </tspan><tspan x="0" y="12">I’m</tspan><tspan class="cls-17" x="13.65" y="12"> </tspan><tspan x="16.79" y="12">a</tspan><tspan class="cls-17" x="22.13" y="12"> </tspan><tspan x="25.27" y="12">persistent</tspan><tspan class="cls-18" x="70.19" y="12"> </tspan><tspan x="73.32" y="12">follower</tspan><tspan class="cls-17" x="110.31" y="12"> </tspan><tspan x="113.45" y="12">o</tspan><tspan class="cls-11" x="119.56" y="12">f</tspan><tspan class="cls-17" x="122.75" y="12"> </tspan><tspan x="125.89" y="12">c</tspan><tspan class="cls-9" x="130.89" y="12">r</tspan><tspan class="cls-19" x="134.31" y="12">e</tspan><tspan class="cls-10" x="139.97" y="12">a</tspan><tspan x="145.21" y="12">tive</tspan><tspan class="cls-17" x="161.48" y="12"> </tspan><tspan x="164.62" y="12">p</tspan><tspan class="cls-9" x="170.97" y="12">r</tspan><tspan x="174.39" y="12">ocesses</tspan><tspan class="cls-17" x="210.26" y="12"> </tspan><tspan x="213.4" y="12">based</tspan><tspan class="cls-17" x="241.63" y="12"> </tspan><tspan x="244.77" y="12">on</tspan><tspan class="cls-18" x="256.69" y="12"> </tspan><tspan x="259.83" y="12">behavio</tspan><tspan class="cls-12" x="296.58" y="12">r</tspan><tspan class="cls-16" x="299.7" y="12">,</tspan><tspan x="302" y="12"> </tspan><tspan x="0" y="24">inte</tspan><tspan class="cls-3" x="17.2" y="24">r</tspan><tspan x="20.68" y="24">action</tspan><tspan class="cls-20" x="48.61" y="24"> </tspan><tspan x="59.2" y="24">and</tspan><tspan class="cls-21" x="76.72" y="24"> </tspan><tspan class="cls-22" x="87.32" y="24">e</tspan><tspan x="92.98" y="24">xperience</tspan><tspan class="cls-20" x="138.24" y="24"> </tspan><tspan x="148.83" y="24">design</tspan><tspan class="cls-7" x="179.99" y="24">.</tspan><tspan class="cls-20" x="182.29" y="24"> </tspan><tspan x="192.88" y="24">Involved</tspan><tspan class="cls-20" x="231.77" y="24"> </tspan><tspan x="242.37" y="24">with</tspan><tspan class="cls-21" x="261.33" y="24"> </tspan><tspan x="271.92" y="24">ethical </tspan><tspan x="0" y="36">technology</tspan><tspan class="cls-23" x="51.47" y="36"> </tspan><tspan x="55.45" y="36">and</tspan><tspan class="cls-24" x="72.97" y="36"> </tspan><tspan x="76.94" y="36">disruptive</tspan><tspan class="cls-23" x="122.28" y="36"> </tspan><tspan x="126.26" y="36">educ</tspan><tspan class="cls-10" x="149.16" y="36">a</tspan><tspan x="154.4" y="36">tion</tspan><tspan class="cls-23" x="171.99" y="36"> </tspan><tspan x="175.97" y="36">methods</tspan><tspan class="cls-16" x="216.44" y="36">.</tspan><tspan class="cls-25" x="218.74" y="36"> </tspan><tspan class="cls-26" x="222.34" y="36">T</tspan><tspan x="227.08" y="36">o</tspan><tspan class="cls-23" x="233.19" y="36"> </tspan><tspan x="237.16" y="36">facilite</tspan><tspan class="cls-23" x="266.86" y="36"> </tspan><tspan x="270.84" y="36">design </tspan><tspan x="0" y="48">principles</tspan><tspan class="cls-27" x="44.79" y="48"> </tspan><tspan x="47.65" y="48">in</tspan><tspan class="cls-28" x="55.96" y="48"> </tspan><tspan x="58.83" y="48">educ</tspan><tspan class="cls-10" x="81.73" y="48">a</tspan><tspan x="86.97" y="48">tion</tspan><tspan class="cls-27" x="104.56" y="48"> </tspan><tspan x="107.42" y="48">made</tspan><tspan class="cls-28" x="133.68" y="48"> </tspan><tspan x="136.54" y="48">me</tspan><tspan class="cls-27" x="151.09" y="48"> </tspan><tspan x="153.95" y="48">the</tspan><tspan class="cls-28" x="168.67" y="48"> </tspan><tspan x="171.54" y="48">person</tspan><tspan class="cls-27" x="203.57" y="48"> </tspan><tspan x="206.43" y="48">I</tspan><tspan class="cls-28" x="209.03" y="48"> </tspan><tspan x="211.89" y="48">am</tspan><tspan class="cls-27" x="226.06" y="48"> </tspan><tspan x="228.93" y="48">kno</tspan><tspan class="cls-29" x="245.95" y="48">w</tspan><tspan class="cls-16" x="253.05" y="48">,</tspan><tspan class="cls-28" x="255.35" y="48"> </tspan><tspan x="258.21" y="48">a</tspan><tspan class="cls-27" x="263.55" y="48"> </tspan><tspan x="266.41" y="48">c</tspan><tspan class="cls-30" x="271.41" y="48">r</tspan><tspan class="cls-19" x="274.83" y="48">e</tspan><tspan class="cls-31" x="280.49" y="48">a</tspan><tspan x="285.73" y="48">tive </tspan><tspan x="0" y="60">human</tspan><tspan class="cls-32" x="31.62" y="60"> </tspan><tspan class="cls-19" x="33.81" y="60">e</tspan><tspan x="39.47" y="60">ager</tspan><tspan class="cls-32" x="60.45" y="60"> </tspan><tspan x="62.64" y="60">to</tspan><tspan class="cls-32" x="71.92" y="60"> </tspan><tspan x="74.11" y="60">l</tspan><tspan class="cls-19" x="76.63" y="60">e</tspan><tspan x="82.29" y="60">arn</tspan><tspan class="cls-32" x="97.04" y="60"> </tspan><tspan x="99.23" y="60">about</tspan><tspan class="cls-32" x="126.03" y="60"> </tspan><tspan x="128.22" y="60">new</tspan><tspan class="cls-32" x="147.21" y="60"> </tspan><tspan x="149.4" y="60">id</tspan><tspan class="cls-22" x="158.27" y="60">e</tspan><tspan x="163.93" y="60">as</tspan><tspan class="cls-33" x="173.71" y="60"> </tspan><tspan x="175.9" y="60">th</tspan><tspan class="cls-10" x="184.9" y="60">a</tspan><tspan x="190.14" y="60">t</tspan><tspan class="cls-32" x="193.31" y="60"> </tspan><tspan x="195.5" y="60">ma</tspan><tspan class="cls-30" x="209.67" y="60">k</tspan><tspan x="214.59" y="60">e</tspan><tspan class="cls-32" x="220.31" y="60"> </tspan><tspan x="222.5" y="60">this</tspan><tspan class="cls-34" x="238.44" y="60"> </tspan><tspan x="240.52" y="60">XXI</tspan><tspan class="cls-32" x="256.1" y="60"> </tspan><tspan x="258.29" y="60">century</tspan><tspan class="cls-32" x="292.28" y="60" xml:space="preserve">  </tspan><tspan x="296.66" y="60">a </tspan><tspan x="0" y="72">be</tspan><tspan class="cls-3" x="12.09" y="72">t</tspan><tspan x="15.14" y="72">ter and mo</tspan><tspan class="cls-9" x="65.09" y="72">r</tspan><tspan x="68.51" y="72">e c</tspan><tspan class="cls-9" x="81.73" y="72">r</tspan><tspan class="cls-19" x="85.15" y="72">e</tspan><tspan class="cls-10" x="90.81" y="72">a</tspan><tspan x="96.05" y="72">tive space for all</tspan><tspan class="cls-16" x="169.71" y="72">.</tspan></text><text class="cls-35" transform="translate(-68.45 137.08)">experience</text><text class="cls-36"><tspan class="cls-37" x="-69.95" y="181.17">C</tspan><tspan x="-61.75" y="181.17">omputer G</tspan><tspan class="cls-38" x="0.77" y="181.17">r</tspan><tspan x="5.33" y="181.17">aphics</tspan><tspan class="cls-39" x="42.66" y="181.17"> </tspan><tspan class="cls-40" x="45.38" y="181.17">T</tspan><tspan class="cls-41" x="51.2" y="181.17">e</tspan><tspan x="58.28" y="181.17">acher &amp; Innov</tspan><tspan class="cls-42" x="138.77" y="181.17">a</tspan><tspan x="145.44" y="181.17">tion </tspan><tspan class="cls-43" x="171.44" y="181.17">L</tspan><tspan class="cls-41" x="177.53" y="181.17">e</tspan><tspan x="184.61" y="181.17">ad</tspan></text><text class="cls-44" transform="translate(-69.95 197.5)">CEDES Don Bosco<tspan x="0" y="10.8">Alajuelita</tspan><tspan class="cls-41" x="0" y="21.6">J</tspan><tspan x="4.37" y="21.6">an 2018 - </tspan><tspan class="cls-45" x="44.92" y="21.6">P</tspan><tspan class="cls-46" x="49.71" y="21.6">r</tspan><tspan x="52.78" y="21.6">esent </tspan></text><text class="cls-44" transform="translate(-69.45 236.62)"><tspan class="cls-47">T</tspan><tspan x="4.27" y="0">echnical</tspan><tspan class="cls-48" x="38.21" y="0"> </tspan><tspan x="43.68" y="0">highschool</tspan><tspan class="cls-49" x="89.12" y="0"> </tspan><tspan x="94.59" y="0">t</tspan><tspan class="cls-41" x="97.44" y="0">e</tspan><tspan x="102.53" y="0">acher</tspan><tspan class="cls-48" x="125.47" y="0"> </tspan><tspan x="130.94" y="0">o</tspan><tspan class="cls-50" x="136.44" y="0">f</tspan><tspan class="cls-48" x="139.31" y="0"> </tspan><tspan x="144.78" y="0">9</tspan><tspan class="cls-48" x="150" y="0"> </tspan><tspan x="155.46" y="0">levels</tspan><tspan class="cls-49" x="178.68" y="0"> </tspan><tspan x="184.15" y="0">o</tspan><tspan class="cls-50" x="189.65" y="0">f</tspan><tspan class="cls-48" x="192.52" y="0"> </tspan><tspan x="197.98" y="0">160</tspan><tspan class="cls-48" x="213.64" y="0"> </tspan><tspan x="219.11" y="0">students</tspan><tspan class="cls-49" x="254.14" y="0"> </tspan><tspan x="259.61" y="0">f</tspan><tspan class="cls-51" x="262.26" y="0">r</tspan><tspan x="265.34" y="0">om</tspan><tspan class="cls-48" x="278.79" y="0"> </tspan><tspan x="284.25" y="0">the </tspan><tspan x="0" y="10.8">speciality</tspan><tspan class="cls-52" x="38.18" y="10.8"> </tspan><tspan x="44.72" y="10.8">o</tspan><tspan class="cls-50" x="50.22" y="10.8">f</tspan><tspan class="cls-52" x="53.09" y="10.8"> </tspan><tspan x="59.63" y="10.8">so</tspan><tspan class="cls-53" x="69.13" y="10.8">f</tspan><tspan x="71.68" y="10.8">twa</tspan><tspan class="cls-46" x="86.05" y="10.8">r</tspan><tspan x="89.13" y="10.8">e</tspan><tspan class="cls-52" x="94.27" y="10.8"> </tspan><tspan x="100.82" y="10.8">development</tspan><tspan class="cls-52" x="155.9" y="10.8"> </tspan><tspan x="162.44" y="10.8">and</tspan><tspan class="cls-52" x="178.21" y="10.8"> </tspan><tspan x="184.75" y="10.8">newtorking</tspan><tspan class="cls-54" x="231.19" y="10.8">.</tspan><tspan class="cls-52" x="233.26" y="10.8"> </tspan><tspan x="239.8" y="10.8">C</tspan><tspan class="cls-46" x="246.28" y="10.8">r</tspan><tspan class="cls-41" x="249.36" y="10.8">e</tspan><tspan class="cls-55" x="254.46" y="10.8">a</tspan><tspan x="259.17" y="10.8">ting</tspan><tspan class="cls-52" x="275.19" y="10.8"> </tspan><tspan x="281.73" y="10.8">and </tspan><tspan x="0" y="21.6">developing</tspan><tspan class="cls-56" x="47.07" y="21.6"> </tspan><tspan x="54.56" y="21.6">adversiting</tspan><tspan class="cls-57" x="100.15" y="21.6"> </tspan><tspan x="107.64" y="21.6">classes</tspan><tspan class="cls-56" x="136.35" y="21.6"> </tspan><tspan x="143.84" y="21.6">to</tspan><tspan class="cls-57" x="152.19" y="21.6"> </tspan><tspan x="159.69" y="21.6">imp</tspan><tspan class="cls-46" x="175.6" y="21.6">r</tspan><tspan x="178.68" y="21.6">ove</tspan><tspan class="cls-56" x="193.72" y="21.6"> </tspan><tspan x="201.21" y="21.6">technological</tspan><tspan class="cls-57" x="256.96" y="21.6"> </tspan><tspan x="264.46" y="21.6">p</tspan><tspan class="cls-51" x="270.17" y="21.6">r</tspan><tspan x="273.25" y="21.6">ojects </tspan><tspan x="0" y="32.4">th</tspan><tspan class="cls-46" x="8.1" y="32.4">r</tspan><tspan x="11.18" y="32.4">ough</tspan><tspan class="cls-58" x="32.84" y="32.4"> </tspan><tspan x="34.7" y="32.4">innov</tspan><tspan class="cls-55" x="57.3" y="32.4">a</tspan><tspan x="62.01" y="32.4">tion</tspan><tspan class="cls-58" x="77.85" y="32.4"> </tspan><tspan x="79.7" y="32.4">principles</tspan><tspan class="cls-59" x="120.01" y="32.4">,</tspan><tspan class="cls-58" x="122.08" y="32.4"> </tspan><tspan x="123.94" y="32.4">audiovisual</tspan><tspan class="cls-58" x="170.4" y="32.4"> </tspan><tspan x="172.26" y="32.4">p</tspan><tspan class="cls-51" x="177.97" y="32.4">r</tspan><tspan x="181.05" y="32.4">oduction</tspan><tspan class="cls-54" x="217.84" y="32.4">,</tspan><tspan class="cls-58" x="219.92" y="32.4"> </tspan><tspan class="cls-41" x="221.77" y="32.4">e</tspan><tspan x="226.87" y="32.4">xperience</tspan><tspan class="cls-58" x="267.6" y="32.4"> </tspan><tspan x="269.46" y="32.4">design </tspan><tspan x="0" y="43.2">and g</tspan><tspan class="cls-53" x="23.71" y="43.2">r</tspan><tspan x="26.84" y="43.2">aphic design and mar</tspan><tspan class="cls-46" x="115.91" y="43.2">k</tspan><tspan x="120.34" y="43.2">eting st</tspan><tspan class="cls-53" x="150.61" y="43.2">r</tspan><tspan class="cls-55" x="153.74" y="43.2">a</tspan><tspan x="158.45" y="43.2">teg</tspan><tspan class="cls-60" x="172.14" y="43.2">y</tspan><tspan class="cls-59" x="176.21" y="43.2">.</tspan><tspan class="cls-47" x="0" y="64.8">T</tspan><tspan x="4.27" y="64.8">o</tspan><tspan class="cls-61" x="9.77" y="64.8"> </tspan><tspan x="12.1" y="64.8">o</tspan><tspan class="cls-46" x="17.6" y="64.8">r</tspan><tspan x="20.67" y="64.8">ganize</tspan><tspan class="cls-62" x="47.77" y="64.8"> </tspan><tspan x="50.11" y="64.8">and</tspan><tspan class="cls-61" x="65.87" y="64.8"> </tspan><tspan x="68.21" y="64.8">enhace</tspan><tspan class="cls-62" x="98.29" y="64.8"> </tspan><tspan x="100.62" y="64.8">innov</tspan><tspan class="cls-55" x="123.22" y="64.8">a</tspan><tspan x="127.93" y="64.8">tive</tspan><tspan class="cls-61" x="142.58" y="64.8"> </tspan><tspan x="144.91" y="64.8">p</tspan><tspan class="cls-46" x="150.62" y="64.8">r</tspan><tspan x="153.7" y="64.8">ojects</tspan><tspan class="cls-62" x="177.96" y="64.8"> </tspan><tspan x="180.29" y="64.8">for</tspan><tspan class="cls-61" x="191.68" y="64.8"> </tspan><tspan x="194.02" y="64.8">the</tspan><tspan class="cls-62" x="207.26" y="64.8"> </tspan><tspan x="209.6" y="64.8">community</tspan><tspan class="cls-61" x="255.44" y="64.8"> </tspan><tspan x="257.78" y="64.8">o</tspan><tspan class="cls-50" x="263.27" y="64.8">f</tspan><tspan class="cls-62" x="266.15" y="64.8"> </tspan><tspan x="268.48" y="64.8">CEDES </tspan><tspan x="0" y="75.6">Don</tspan><tspan class="cls-63" x="17.54" y="75.6"> </tspan><tspan x="22.62" y="75.6">Bosco</tspan><tspan class="cls-63" x="47.84" y="75.6"> </tspan><tspan x="52.92" y="75.6">(Educ</tspan><tspan class="cls-55" x="76.41" y="75.6">a</tspan><tspan x="81.13" y="75.6">tional</tspan><tspan class="cls-63" x="104.03" y="75.6"> </tspan><tspan x="109.11" y="75.6">Institute)</tspan><tspan class="cls-63" x="144.57" y="75.6"> </tspan><tspan x="149.65" y="75.6">and</tspan><tspan class="cls-64" x="165.42" y="75.6"> </tspan><tspan x="170.5" y="75.6">the</tspan><tspan class="cls-46" x="183.75" y="75.6">r</tspan><tspan x="186.82" y="75.6">eby</tspan><tspan class="cls-63" x="202.1" y="75.6"> </tspan><tspan x="207.18" y="75.6">ensu</tspan><tspan class="cls-51" x="226.78" y="75.6">r</tspan><tspan x="229.86" y="75.6">e</tspan><tspan class="cls-63" x="235.01" y="75.6"> </tspan><tspan x="240.09" y="75.6">alliances</tspan><tspan class="cls-63" x="275.36" y="75.6"> </tspan><tspan x="280.44" y="75.6">with </tspan><tspan x="0" y="86.4">priv</tspan><tspan class="cls-55" x="15.6" y="86.4">a</tspan><tspan x="20.31" y="86.4">te</tspan><tspan class="cls-65" x="28.31" y="86.4"> </tspan><tspan x="32.21" y="86.4">and</tspan><tspan class="cls-66" x="47.97" y="86.4"> </tspan><tspan x="51.87" y="86.4">public</tspan><tspan class="cls-65" x="77.56" y="86.4"> </tspan><tspan x="81.45" y="86.4">companies</tspan><tspan class="cls-65" x="126.54" y="86.4"> </tspan><tspan x="130.43" y="86.4">to</tspan><tspan class="cls-66" x="138.79" y="86.4"> </tspan><tspan x="142.68" y="86.4">work</tspan><tspan class="cls-65" x="162.72" y="86.4"> </tspan><tspan x="166.61" y="86.4">together</tspan><tspan class="cls-65" x="202.29" y="86.4"> </tspan><tspan x="206.18" y="86.4">to</tspan><tspan class="cls-65" x="214.53" y="86.4"> </tspan><tspan x="218.42" y="86.4">imp</tspan><tspan class="cls-46" x="234.34" y="86.4">r</tspan><tspan x="237.41" y="86.4">ove</tspan><tspan class="cls-66" x="252.45" y="86.4"> </tspan><tspan x="256.34" y="86.4">educ</tspan><tspan class="cls-55" x="276.95" y="86.4">a</tspan><tspan x="281.67" y="86.4">tion </tspan><tspan x="0" y="97.2">th</tspan><tspan class="cls-46" x="8.1" y="97.2">r</tspan><tspan x="11.18" y="97.2">ough mar</tspan><tspan class="cls-51" x="51.08" y="97.2">k</tspan><tspan x="55.51" y="97.2">et necessities and students talent</tspan><tspan class="cls-59" x="190.99" y="97.2">.</tspan></text><text class="cls-36"><tspan x="-69.95" y="364.79">Digital Designer (PS) Specialist</tspan></text><text class="cls-44" transform="translate(-69.45 377.66)"><tspan class="cls-47">T</tspan><tspan class="cls-41" x="4.27" y="0">e</tspan><tspan x="9.36" y="0">xas</tspan><tspan class="cls-67" x="22.52" y="0"> </tspan><tspan class="cls-47" x="24.55" y="0">T</tspan><tspan x="28.82" y="0">ech University</tspan><tspan x="0" y="10.8">Escazú</tspan><tspan x="0" y="21.6">Jun 2018 - Sep 2018</tspan></text><text class="cls-44" transform="translate(-69.45 414.46)">Designing<tspan class="cls-68" x="42.29" y="0"> </tspan><tspan x="47.6" y="0">digital</tspan><tspan class="cls-68" x="73.45" y="0"> </tspan><tspan x="78.76" y="0">and</tspan><tspan class="cls-68" x="94.52" y="0"> </tspan><tspan x="99.83" y="0">adve</tspan><tspan class="cls-53" x="119.91" y="0">r</tspan><tspan x="123.04" y="0">tising</tspan><tspan class="cls-68" x="145.31" y="0"> </tspan><tspan x="150.62" y="0">communic</tspan><tspan class="cls-55" x="193.72" y="0">a</tspan><tspan x="198.43" y="0">tion</tspan><tspan class="cls-68" x="214.26" y="0"> </tspan><tspan x="219.57" y="0">st</tspan><tspan class="cls-53" x="226.42" y="0">r</tspan><tspan class="cls-69" x="229.55" y="0">a</tspan><tspan x="234.27" y="0">tegies</tspan><tspan class="cls-68" x="259.35" y="0"> </tspan><tspan x="264.66" y="0">for</tspan><tspan class="cls-70" x="276.05" y="0"> </tspan><tspan x="280.85" y="0">TTU </tspan><tspan class="cls-53" x="0" y="10.8">C</tspan><tspan x="6.37" y="10.8">osta</tspan><tspan class="cls-71" x="23.53" y="10.8"> </tspan><tspan x="26.82" y="10.8">Rica</tspan><tspan class="cls-71" x="43.77" y="10.8"> </tspan><tspan class="cls-46" x="47.07" y="10.8">C</tspan><tspan x="53.39" y="10.8">ampus</tspan><tspan class="cls-59" x="81.08" y="10.8">.</tspan><tspan class="cls-72" x="83.15" y="10.8"> </tspan><tspan x="86.45" y="10.8">C</tspan><tspan class="cls-51" x="92.93" y="10.8">r</tspan><tspan class="cls-41" x="96.01" y="10.8">e</tspan><tspan class="cls-55" x="101.1" y="10.8">a</tspan><tspan x="105.82" y="10.8">ting</tspan><tspan class="cls-71" x="121.84" y="10.8"> </tspan><tspan x="125.14" y="10.8">b</tspan><tspan class="cls-53" x="130.87" y="10.8">r</tspan><tspan x="134" y="10.8">anding</tspan><tspan class="cls-71" x="162.94" y="10.8"> </tspan><tspan x="166.23" y="10.8">and</tspan><tspan class="cls-71" x="182" y="10.8"> </tspan><tspan x="185.3" y="10.8">g</tspan><tspan class="cls-53" x="190.99" y="10.8">r</tspan><tspan x="194.12" y="10.8">aphic</tspan><tspan class="cls-72" x="216.64" y="10.8"> </tspan><tspan x="219.94" y="10.8">design</tspan><tspan class="cls-71" x="247.98" y="10.8"> </tspan><tspan x="251.28" y="10.8">for</tspan><tspan class="cls-71" x="262.67" y="10.8"> </tspan><tspan x="265.97" y="10.8">the</tspan><tspan class="cls-71" x="279.22" y="10.8"> </tspan><tspan x="282.52" y="10.8">first </tspan><tspan x="0" y="21.6">gene</tspan><tspan class="cls-53" x="21.21" y="21.6">r</tspan><tspan class="cls-55" x="24.34" y="21.6">a</tspan><tspan x="29.06" y="21.6">tion</tspan><tspan class="cls-73" x="44.89" y="21.6"> </tspan><tspan x="47.07" y="21.6">o</tspan><tspan class="cls-50" x="52.57" y="21.6">f</tspan><tspan class="cls-74" x="55.44" y="21.6"> </tspan><tspan x="57.62" y="21.6">students</tspan><tspan class="cls-73" x="92.65" y="21.6"> </tspan><tspan x="94.83" y="21.6">in</tspan><tspan class="cls-73" x="102.31" y="21.6"> </tspan><tspan class="cls-53" x="104.49" y="21.6">C</tspan><tspan x="110.86" y="21.6">osta</tspan><tspan class="cls-73" x="128.01" y="21.6"> </tspan><tspan x="130.19" y="21.6">Rica</tspan><tspan class="cls-59" x="147.14" y="21.6">,</tspan><tspan class="cls-74" x="149.21" y="21.6"> </tspan><tspan x="151.38" y="21.6">working</tspan><tspan class="cls-73" x="184.59" y="21.6"> </tspan><tspan x="186.77" y="21.6">with</tspan><tspan class="cls-73" x="203.83" y="21.6"> </tspan><tspan x="206.01" y="21.6">the</tspan><tspan class="cls-73" x="219.26" y="21.6"> </tspan><tspan x="221.44" y="21.6">mar</tspan><tspan class="cls-46" x="237.43" y="21.6">k</tspan><tspan x="241.86" y="21.6">eting</tspan><tspan class="cls-74" x="263.03" y="21.6"> </tspan><tspan x="265.2" y="21.6">di</tspan><tspan class="cls-51" x="273.19" y="21.6">r</tspan><tspan x="276.26" y="21.6">ector </tspan><tspan x="0" y="32.4">in the gene</tspan><tspan class="cls-53" x="46.44" y="32.4">r</tspan><tspan class="cls-55" x="49.57" y="32.4">a</tspan><tspan x="54.29" y="32.4">tion o</tspan><tspan class="cls-50" x="77.87" y="32.4">f</tspan><tspan x="80.74" y="32.4" xml:space="preserve"> insights and p</tspan><tspan class="cls-46" x="140.48" y="32.4">r</tspan><tspan x="143.56" y="32.4">oject </tspan><tspan class="cls-75" x="166.07" y="32.4">ex</tspan><tspan x="175.46" y="32.4">ecution</tspan><tspan class="cls-59" x="206.17" y="32.4">.</tspan><tspan x="208.24" y="32.4"> </tspan><tspan x="0" y="43.2">PS: </tspan><tspan class="cls-76" x="15.25" y="43.2">P</tspan><tspan class="cls-51" x="20.03" y="43.2">r</tspan><tspan x="23.11" y="43.2">ofessional Services</tspan></text><text class="cls-77"><tspan x="-69.95" y="492.03">SEO/</tspan><tspan class="cls-78" x="-35.46" y="492.03">P</tspan><tspan x="-27.16" y="492.03">aid Media Intern </tspan></text><text class="cls-44" transform="translate(-69.95 506.72)">C<tspan class="cls-46" x="6.48" y="0">r</tspan><tspan class="cls-75" x="9.56" y="0">e</tspan><tspan class="cls-55" x="14.65" y="0">a</tspan><tspan x="19.37" y="0">tive Drive L</tspan><tspan class="cls-79" x="64.94" y="0">AT</tspan><tspan x="75.29" y="0">AM</tspan><tspan class="cls-53" x="0" y="10.8">T</tspan><tspan x="5.02" y="10.8">ibás</tspan><tspan x="0" y="21.6">Aug 2017 - Nov 2017</tspan></text><text class="cls-44" transform="translate(-69.45 547.06)"><tspan class="cls-79">P</tspan><tspan x="4.68" y="0">aid</tspan><tspan class="cls-80" x="17.47" y="0"> </tspan><tspan x="22.62" y="0">Media</tspan><tspan class="cls-80" x="48.53" y="0"> </tspan><tspan x="53.68" y="0">assistand</tspan><tspan class="cls-80" x="91.34" y="0"> </tspan><tspan class="cls-51" x="96.49" y="0">r</tspan><tspan x="99.57" y="0">ole</tspan><tspan class="cls-80" x="112.48" y="0"> </tspan><tspan x="117.63" y="0">for</tspan><tspan class="cls-80" x="129.02" y="0"> </tspan><tspan x="134.17" y="0">an</tspan><tspan class="cls-80" x="144.21" y="0"> </tspan><tspan x="149.35" y="0">adve</tspan><tspan class="cls-81" x="169.43" y="0">r</tspan><tspan x="172.56" y="0">tising</tspan><tspan class="cls-80" x="194.83" y="0"> </tspan><tspan x="199.98" y="0">and</tspan><tspan class="cls-80" x="215.75" y="0"> </tspan><tspan x="220.9" y="0">so</tspan><tspan class="cls-53" x="230.39" y="0">f</tspan><tspan x="232.94" y="0">twa</tspan><tspan class="cls-51" x="247.31" y="0">r</tspan><tspan x="250.39" y="0">e</tspan><tspan class="cls-80" x="255.54" y="0"> </tspan><tspan x="260.68" y="0">solutions </tspan><tspan x="0" y="10.8">agency</tspan><tspan class="cls-82" x="29.76" y="10.8"> </tspan><tspan x="33.05" y="10.8">o</tspan><tspan class="cls-50" x="38.54" y="10.8">f</tspan><tspan class="cls-83" x="41.42" y="10.8"> </tspan><tspan x="44.7" y="10.8">C</tspan><tspan class="cls-51" x="51.18" y="10.8">r</tspan><tspan class="cls-41" x="54.25" y="10.8">e</tspan><tspan class="cls-55" x="59.35" y="10.8">a</tspan><tspan x="64.06" y="10.8">tive</tspan><tspan class="cls-82" x="78.71" y="10.8"> </tspan><tspan x="81.99" y="10.8">Drive</tspan><tspan class="cls-83" x="103.83" y="10.8"> </tspan><tspan x="107.11" y="10.8">L</tspan><tspan class="cls-79" x="111.7" y="10.8">AT</tspan><tspan x="122.05" y="10.8">AM</tspan><tspan class="cls-59" x="136.33" y="10.8">,</tspan><tspan class="cls-82" x="138.4" y="10.8"> </tspan><tspan x="141.68" y="10.8">c</tspan><tspan class="cls-46" x="146.18" y="10.8">r</tspan><tspan class="cls-75" x="149.26" y="10.8">e</tspan><tspan class="cls-55" x="154.35" y="10.8">a</tspan><tspan x="159.07" y="10.8">ting</tspan><tspan class="cls-83" x="175.09" y="10.8"> </tspan><tspan x="178.37" y="10.8">adve</tspan><tspan class="cls-53" x="198.45" y="10.8">r</tspan><tspan x="201.58" y="10.8">tising</tspan><tspan class="cls-82" x="223.85" y="10.8"> </tspan><tspan class="cls-46" x="227.13" y="10.8">r</tspan><tspan x="230.21" y="10.8">esults</tspan><tspan class="cls-83" x="253.7" y="10.8"> </tspan><tspan x="256.98" y="10.8">for</tspan><tspan class="cls-82" x="268.37" y="10.8"> </tspan><tspan x="271.65" y="10.8">digital </tspan><tspan x="0" y="21.6">mar</tspan><tspan class="cls-46" x="15.99" y="21.6">k</tspan><tspan x="20.42" y="21.6">eting</tspan><tspan class="cls-84" x="41.59" y="21.6"> </tspan><tspan x="44.28" y="21.6">campaign</tspan><tspan class="cls-85" x="85.22" y="21.6"> </tspan><tspan class="cls-51" x="87.91" y="21.6">r</tspan><tspan x="90.99" y="21.6">esults</tspan><tspan class="cls-59" x="114.48" y="21.6">,</tspan><tspan class="cls-84" x="116.55" y="21.6"> </tspan><tspan x="119.24" y="21.6">using</tspan><tspan class="cls-84" x="141.64" y="21.6"> </tspan><tspan x="144.33" y="21.6">adve</tspan><tspan class="cls-53" x="164.41" y="21.6">r</tspan><tspan x="167.54" y="21.6">tising</tspan><tspan class="cls-84" x="189.81" y="21.6"> </tspan><tspan x="192.5" y="21.6">and</tspan><tspan class="cls-85" x="208.27" y="21.6"> </tspan><tspan x="210.96" y="21.6">p</tspan><tspan class="cls-46" x="216.67" y="21.6">r</tspan><tspan x="219.75" y="21.6">oject</tspan><tspan class="cls-84" x="240.01" y="21.6"> </tspan><tspan x="242.7" y="21.6">management </tspan><tspan x="0" y="32.4">tools</tspan><tspan class="cls-86" x="20.12" y="32.4"> </tspan><tspan x="23.39" y="32.4">li</tspan><tspan class="cls-46" x="27.9" y="32.4">k</tspan><tspan x="32.33" y="32.4">e</tspan><tspan class="cls-87" x="37.48" y="32.4"> </tspan><tspan x="40.59" y="32.4">JIRA</tspan><tspan class="cls-59" x="59.05" y="32.4">,</tspan><tspan class="cls-86" x="61.12" y="32.4"> </tspan><tspan x="64.39" y="32.4">Business</tspan><tspan class="cls-86" x="99.96" y="32.4"> </tspan><tspan x="103.23" y="32.4">Manage</tspan><tspan class="cls-45" x="136.88" y="32.4">r</tspan><tspan class="cls-59" x="139.69" y="32.4">,</tspan><tspan class="cls-86" x="141.76" y="32.4"> </tspan><tspan x="145.03" y="32.4">Google</tspan><tspan class="cls-88" x="176.14" y="32.4"> </tspan><tspan class="cls-59" x="179.41" y="32.4">K</tspan><tspan x="184.79" y="32.4">eywo</tspan><tspan class="cls-46" x="206.54" y="32.4">r</tspan><tspan x="209.62" y="32.4">ds</tspan><tspan class="cls-59" x="219.35" y="32.4">,</tspan><tspan class="cls-86" x="221.42" y="32.4"> </tspan><tspan x="224.69" y="32.4">Google</tspan><tspan class="cls-89" x="255.8" y="32.4"> </tspan><tspan x="258.84" y="32.4">Analytics</tspan><tspan class="cls-59" x="295.43" y="32.4">,</tspan><tspan x="297.5" y="32.4"> </tspan><tspan x="0" y="43.2">Social Ba</tspan><tspan class="cls-46" x="37.18" y="43.2">k</tspan><tspan x="41.61" y="43.2">ers and other tools to imp</tspan><tspan class="cls-51" x="147.37" y="43.2">r</tspan><tspan x="150.45" y="43.2">ove communic</tspan><tspan class="cls-55" x="210.84" y="43.2">a</tspan><tspan x="215.56" y="43.2">tion st</tspan><tspan class="cls-53" x="240.49" y="43.2">r</tspan><tspan class="cls-69" x="243.62" y="43.2">a</tspan><tspan x="248.34" y="43.2">tegies</tspan><tspan class="cls-59" x="273.42" y="43.2">.</tspan></text><text class="cls-77"><tspan x="-69.45" y="616.39">So</tspan><tspan class="cls-90" x="-52.33" y="616.39">f</tspan><tspan x="-47.57" y="616.39">twa</tspan><tspan class="cls-91" x="-22.25" y="616.39">r</tspan><tspan x="-16.96" y="616.39">e </tspan><tspan class="cls-92" x="-5.11" y="616.39">P</tspan><tspan x="3.19" y="616.39">ac</tspan><tspan class="cls-93" x="18.16" y="616.39">k</tspan><tspan x="26.4" y="616.39">aging Intern </tspan></text><text class="cls-44" transform="translate(-69.45 631.8)">IBM<tspan x="0" y="10.8">AFZ</tspan><tspan class="cls-59" x="16.51" y="10.8">,</tspan><tspan x="18.58" y="10.8" xml:space="preserve"> He</tspan><tspan class="cls-46" x="32.44" y="10.8">r</tspan><tspan x="35.51" y="10.8">edia</tspan><tspan x="0" y="21.6">Oct 2016 - Dec 2016</tspan></text><text class="cls-94" transform="translate(259.82 91.39)">hard skills</text><text class="cls-35" transform="translate(259.25 247.03)">EDUC<tspan class="cls-95" x="47.85" y="0">A</tspan><tspan x="58.94" y="0">TION</tspan></text><text class="cls-96" transform="translate(260 283.8)">Bachelor o<tspan class="cls-97" x="67.01" y="0">f</tspan><tspan class="cls-98" x="72.06" y="0"> </tspan><tspan x="75.07" y="0">Adve</tspan><tspan class="cls-99" x="108.22" y="0">r</tspan><tspan x="113.22" y="0">tising emphasized in </tspan><tspan x="0" y="15.6">Multimedia </tspan><tspan class="cls-100" x="75.72" y="15.6">P</tspan><tspan class="cls-98" x="83.48" y="15.6">r</tspan><tspan x="88.4" y="15.6">oduction </tspan><tspan class="cls-101" x="147.85" y="15.6">a</tspan><tspan x="155.07" y="15.6">t UL</tspan><tspan class="cls-98" x="179.59" y="15.6">A</tspan><tspan x="188.83" y="15.6">CI</tspan><tspan class="cls-102" x="202.02" y="15.6">T</tspan></text><text class="cls-44" transform="translate(260.5 316.68)"><tspan class="cls-41">J</tspan><tspan x="4.37" y="0">an 2017 - Sep 2019</tspan><tspan x="0" y="10.8">Bachelor&apos;s</tspan><tspan class="cls-103" x="42.77" y="10.8"> </tspan><tspan x="45.21" y="10.8">Deg</tspan><tspan class="cls-46" x="62.86" y="10.8">r</tspan><tspan x="65.94" y="10.8">ee</tspan><tspan class="cls-104" x="76.23" y="10.8"> </tspan><tspan x="78.68" y="10.8">University</tspan><tspan class="cls-103" x="118.82" y="10.8"> </tspan><tspan x="121.26" y="10.8">Deg</tspan><tspan class="cls-51" x="138.91" y="10.8">r</tspan><tspan x="141.99" y="10.8">ee</tspan><tspan class="cls-104" x="152.28" y="10.8"> </tspan><tspan x="154.72" y="10.8">in</tspan><tspan class="cls-105" x="162.2" y="10.8"> </tspan><tspan x="164.47" y="10.8">Adve</tspan><tspan class="cls-53" x="186.04" y="10.8">r</tspan><tspan x="189.17" y="10.8">tising</tspan><tspan class="cls-103" x="211.44" y="10.8"> </tspan><tspan x="213.88" y="10.8">emphasized</tspan><tspan class="cls-104" x="263.85" y="10.8"> </tspan><tspan x="266.29" y="10.8">in</tspan><tspan class="cls-103" x="273.77" y="10.8"> </tspan><tspan x="276.21" y="10.8">Multimedia </tspan><tspan class="cls-76" x="0" y="21.6">P</tspan><tspan class="cls-51" x="4.79" y="21.6">r</tspan><tspan x="7.87" y="21.6">oduction </tspan><tspan class="cls-55" x="46.91" y="21.6">a</tspan><tspan x="51.62" y="21.6">t UL</tspan><tspan class="cls-46" x="67.71" y="21.6">A</tspan><tspan x="73.84" y="21.6">CI</tspan><tspan class="cls-67" x="82.66" y="21.6">T</tspan></text><text class="cls-96"><tspan x="259.82" y="361.35">So</tspan><tspan class="cls-106" x="275.72" y="361.35">f</tspan><tspan x="280.14" y="361.35">twa</tspan><tspan class="cls-98" x="303.66" y="361.35">r</tspan><tspan x="308.57" y="361.35">e Development Middle</tspan><tspan class="cls-102" x="453.97" y="361.35"> </tspan><tspan class="cls-107" x="456.91" y="361.35">T</tspan><tspan x="463.22" y="361.35">echnician</tspan></text><text class="cls-44" transform="translate(259.98 379.38)">CEDES Don Bosco<tspan x="0" y="10.8">Alajuelita</tspan><tspan class="cls-41" x="0" y="21.6">J</tspan><tspan x="4.37" y="21.6">an 2014 - Dec 2016</tspan><tspan x="0" y="32.4">So</tspan><tspan class="cls-53" x="10.58" y="32.4">f</tspan><tspan x="13.12" y="32.4">twa</tspan><tspan class="cls-46" x="27.5" y="32.4">r</tspan><tspan x="30.57" y="32.4">e</tspan><tspan class="cls-108" x="35.72" y="32.4"> </tspan><tspan x="37.59" y="32.4">Development</tspan><tspan class="cls-109" x="93.75" y="32.4"> </tspan><tspan x="95.63" y="32.4">High</tspan><tspan class="cls-108" x="115.28" y="32.4"> </tspan><tspan x="117.15" y="32.4">School</tspan><tspan class="cls-109" x="145.24" y="32.4"> </tspan><tspan x="147.11" y="32.4">Middle</tspan><tspan class="cls-110" x="176.22" y="32.4"> </tspan><tspan class="cls-47" x="177.91" y="32.4">T</tspan><tspan x="182.18" y="32.4">echnician</tspan><tspan class="cls-108" x="221.34" y="32.4"> </tspan><tspan x="223.21" y="32.4">(</tspan><tspan class="cls-109" x="225.91" y="32.4"> </tspan><tspan x="227.79" y="32.4">C</tspan><tspan class="cls-46" x="234.27" y="32.4">r</tspan><tspan class="cls-75" x="237.34" y="32.4">e</tspan><tspan class="cls-55" x="242.44" y="32.4">a</tspan><tspan x="247.16" y="32.4">ting</tspan><tspan class="cls-108" x="263.18" y="32.4"> </tspan><tspan x="265.05" y="32.4">so</tspan><tspan class="cls-81" x="274.54" y="32.4">f</tspan><tspan x="277.09" y="32.4">twa</tspan><tspan class="cls-51" x="291.46" y="32.4">r</tspan><tspan x="294.54" y="32.4">e </tspan><tspan x="0" y="43.2">p</tspan><tspan class="cls-46" x="5.71" y="43.2">r</tspan><tspan x="8.79" y="43.2">ojects</tspan><tspan class="cls-111" x="33.05" y="43.2"> </tspan><tspan x="35.75" y="43.2">with</tspan><tspan class="cls-112" x="52.81" y="43.2"> </tspan><tspan x="55.52" y="43.2">gene</tspan><tspan class="cls-53" x="76.73" y="43.2">r</tspan><tspan x="79.86" y="43.2">al</tspan><tspan class="cls-111" x="86.94" y="43.2"> </tspan><tspan x="89.64" y="43.2">knowledge</tspan><tspan class="cls-112" x="135.65" y="43.2"> </tspan><tspan x="138.36" y="43.2">in</tspan><tspan class="cls-111" x="145.84" y="43.2"> </tspan><tspan x="148.54" y="43.2">HTML5</tspan><tspan class="cls-59" x="177.91" y="43.2">,</tspan><tspan class="cls-112" x="179.98" y="43.2"> </tspan><tspan x="182.69" y="43.2">CSS3</tspan><tspan class="cls-59" x="204.54" y="43.2">,</tspan><tspan class="cls-111" x="206.61" y="43.2"> </tspan><tspan x="209.31" y="43.2">SQ</tspan><tspan class="cls-67" x="221.97" y="43.2">L</tspan><tspan class="cls-112" x="226.35" y="43.2"> </tspan><tspan x="229.05" y="43.2">Serve</tspan><tspan class="cls-45" x="252.05" y="43.2">r</tspan><tspan class="cls-59" x="254.86" y="43.2">,</tspan><tspan class="cls-111" x="256.93" y="43.2"> </tspan><tspan x="259.63" y="43.2">C#</tspan><tspan class="cls-59" x="271.12" y="43.2">,</tspan><tspan class="cls-113" x="273.19" y="43.2"> </tspan><tspan class="cls-51" x="275.69" y="43.2">V</tspan><tspan x="281.14" y="43.2">isual </tspan><tspan class="cls-41" x="0" y="54">S</tspan><tspan x="5.02" y="54">tudio)</tspan></text><text class="cls-114" transform="translate(261.07 105.91) scale(0.88 1)">Adobe <tspan class="cls-115" x="30.32" y="0">P</tspan><tspan class="cls-116" x="35.05" y="0">r</tspan><tspan x="38.1" y="0">emie</tspan><tspan class="cls-117" x="58.36" y="0">r</tspan><tspan x="61.4" y="0">e</tspan><tspan x="0" y="10.68">Adobe Illust</tspan><tspan class="cls-118" x="49.06" y="10.68">r</tspan><tspan class="cls-119" x="52.15" y="10.68">a</tspan><tspan x="56.82" y="10.68">tor</tspan><tspan x="0" y="21.36">Adobe Photoshop</tspan><tspan x="0" y="32.04">Adobe Light</tspan><tspan class="cls-117" x="50.71" y="32.04">r</tspan><tspan x="53.76" y="32.04">oom</tspan><tspan x="0" y="42.71">Adobe</tspan><tspan class="cls-118" x="28.09" y="42.71"> </tspan><tspan x="30.21" y="42.71">XD</tspan><tspan class="cls-117" x="0" y="53.39">F</tspan><tspan x="4.84" y="53.39">igma</tspan><tspan class="cls-120" x="0" y="64.07">T</tspan><tspan class="cls-117" x="4.27" y="64.07">r</tspan><tspan x="7.31" y="64.07">ello</tspan><tspan x="0" y="74.75">In</tspan><tspan class="cls-117" x="7.48" y="74.75">V</tspan><tspan x="12.87" y="74.75">ision</tspan><tspan x="0" y="85.43">Google Suite</tspan><tspan x="0" y="96.11">HTML</tspan><tspan class="cls-121" x="23.88" y="96.11">,</tspan><tspan x="25.93" y="96.11" xml:space="preserve"> CSS</tspan><tspan x="0" y="106.78">C#</tspan><tspan class="cls-121" x="11.35" y="106.78">,</tspan><tspan class="cls-117" x="13.4" y="106.78"> </tspan><tspan x="15.47" y="106.78">AS</tspan><tspan class="cls-122" x="26.71" y="106.78">P</tspan><tspan x="30.59" y="106.78">.NE</tspan><tspan class="cls-123" x="44.97" y="106.78">T</tspan></text><rect x="401.62" y="102.69" width="55.31" height="5.34" rx="2.67" ry="2.67"/><text class="cls-94" transform="translate(258 454.3)">courses &amp; certific<tspan class="cls-124" x="180.54" y="0">a</tspan><tspan x="191.76" y="0">tions</tspan></text><text class="cls-125" transform="translate(257.5 472.51)"><tspan class="cls-126">User Experience (UX) </tspan><tspan class="cls-127" x="94.81" y="0">C</tspan><tspan class="cls-126" x="100.96" y="0">e</tspan><tspan class="cls-127" x="106.33" y="0">r</tspan><tspan class="cls-126" x="109.78" y="0">tific</tspan><tspan class="cls-128" x="126.31" y="0">a</tspan><tspan class="cls-126" x="131.31" y="0">tion </tspan><tspan class="cls-129" x="150.8" y="0">a</tspan><tspan class="cls-130" x="155.52" y="0">t</tspan><tspan class="cls-126" x="158.37" y="0"> </tspan><tspan class="cls-131" x="160.62" y="0">Universidad C</tspan><tspan class="cls-132" x="215.93" y="0">r</tspan><tspan class="cls-133" x="218.6" y="0">e</tspan><tspan class="cls-134" x="223.52" y="0">a</tspan><tspan class="cls-131" x="228.04" y="0">tiva</tspan><tspan class="cls-130"><tspan x="0" y="10.8">April 2020 -</tspan><tspan class="cls-46" x="48.03" y="10.8"> </tspan><tspan x="50.12" y="10.8">April 2021</tspan></tspan><tspan class="cls-126" x="0" y="32.4">77-727:</tspan><tspan class="cls-135" x="34.99" y="32.4"> </tspan><tspan class="cls-126" x="43.36" y="32.4">MOS:</tspan><tspan class="cls-135" x="67.92" y="32.4"> </tspan><tspan class="cls-126" x="76.29" y="32.4">Mic</tspan><tspan class="cls-136" x="92.07" y="32.4">r</tspan><tspan class="cls-126" x="95.48" y="32.4">oso</tspan><tspan class="cls-137" x="111.1" y="32.4">f</tspan><tspan class="cls-126" x="114.16" y="32.4">t</tspan><tspan class="cls-135" x="117.51" y="32.4"> </tspan><tspan class="cls-126" x="125.88" y="32.4">O</tspan><tspan class="cls-138" x="133.53" y="32.4">f</tspan><tspan class="cls-126" x="136.54" y="32.4">fice</tspan><tspan class="cls-135" x="152.42" y="32.4"> </tspan><tspan class="cls-126" x="160.78" y="32.4">E</tspan><tspan class="cls-139" x="166.25" y="32.4">x</tspan><tspan class="cls-126" x="171.39" y="32.4">cel</tspan><tspan class="cls-135" x="183.97" y="32.4"> </tspan><tspan class="cls-126" x="192.33" y="32.4">2016:</tspan><tspan class="cls-140" x="218.58" y="32.4"> </tspan><tspan class="cls-141" x="226.95" y="32.4">C</tspan><tspan class="cls-130" x="233.32" y="32.4">o</tspan><tspan class="cls-142" x="238.82" y="32.4">r</tspan><tspan class="cls-130" x="241.9" y="32.4">e</tspan><tspan class="cls-140" x="247.04" y="32.4"> </tspan><tspan class="cls-130" x="255.41" y="32.4">D</tspan><tspan class="cls-129" x="262.22" y="32.4">a</tspan><tspan class="cls-130" x="266.94" y="32.4">ta</tspan><tspan class="cls-143" x="274.6" y="32.4"> </tspan><tspan class="cls-130" x="282.37" y="32.4">Analysis</tspan><tspan class="cls-144" x="315.6" y="32.4">,</tspan><tspan class="cls-130" x="317.67" y="32.4"> </tspan><tspan class="cls-130"><tspan x="0" y="43.2">Manipul</tspan><tspan class="cls-55" x="33.47" y="43.2">a</tspan><tspan x="38.19" y="43.2">tion</tspan><tspan class="cls-59" x="54.02" y="43.2">,</tspan><tspan x="56.09" y="43.2" xml:space="preserve"> and </tspan><tspan class="cls-76" x="76.36" y="43.2">P</tspan><tspan class="cls-51" x="81.14" y="43.2">r</tspan><tspan x="84.22" y="43.2">esent</tspan><tspan class="cls-69" x="106.6" y="43.2">a</tspan><tspan class="cls-145" x="111.31" y="43.2">tion</tspan><tspan x="0" y="54">August 2020</tspan></tspan><tspan class="cls-126" x="0" y="75.6">W@T</tspan><tspan class="cls-137" x="21.65" y="75.6">T</tspan><tspan class="cls-126" x="26.67" y="75.6"> </tspan><tspan class="cls-127" x="28.92" y="75.6">C</tspan><tspan class="cls-126" x="35.07" y="75.6">e</tspan><tspan class="cls-127" x="40.44" y="75.6">r</tspan><tspan class="cls-126" x="43.89" y="75.6">tific</tspan><tspan class="cls-128" x="60.42" y="75.6">a</tspan><tspan class="cls-126" x="65.42" y="75.6">tion </tspan><tspan class="cls-130" x="84.92" y="75.6">(Advanced </tspan><tspan class="cls-142" x="131.71" y="75.6">L</tspan><tspan class="cls-130" x="136.13" y="75.6">evel) </tspan><tspan class="cls-129" x="158.04" y="75.6">a</tspan><tspan class="cls-130" x="162.76" y="75.6">t </tspan><tspan class="cls-146" x="167.86" y="75.6">T</tspan><tspan class="cls-133" x="171.63" y="75.6">e</tspan><tspan class="cls-131" x="176.55" y="75.6">xas</tspan><tspan class="cls-147" x="188.68" y="75.6"> </tspan><tspan class="cls-146" x="190.71" y="75.6">T</tspan><tspan class="cls-131" x="194.48" y="75.6">ech University</tspan><tspan class="cls-130"><tspan x="0" y="86.4">Apr 2020 - </tspan><tspan class="cls-76" x="45.76" y="86.4">P</tspan><tspan class="cls-51" x="50.55" y="86.4">r</tspan><tspan x="53.63" y="86.4">esent</tspan></tspan><tspan class="cls-126" x="0" y="108">Designing for Behaviour &amp; Impact </tspan><tspan class="cls-129" x="150.24" y="108">a</tspan><tspan class="cls-130" x="154.96" y="108">t </tspan><tspan class="cls-148" x="160.06" y="108">C</tspan><tspan class="cls-149" x="165.76" y="108">openhaguen Institute o</tspan><tspan class="cls-150" x="247.67" y="108">f</tspan><tspan class="cls-151" x="250.12" y="108" xml:space="preserve"> Inte</tspan><tspan class="cls-148" x="265.28" y="108">r</tspan><tspan class="cls-151" x="267.65" y="108">action Design</tspan><tspan class="cls-130"><tspan x="0" y="118.8">Apr 2020 - </tspan><tspan class="cls-76" x="45.76" y="118.8">P</tspan><tspan class="cls-51" x="50.55" y="118.8">r</tspan><tspan x="53.63" y="118.8">esent </tspan></tspan><tspan class="cls-126" x="0" y="140.4">Int</tspan><tspan class="cls-136" x="11.75" y="140.4">r</tspan><tspan class="cls-126" x="15.16" y="140.4">o to Inte</tspan><tspan class="cls-152" x="51.5" y="140.4">r</tspan><tspan class="cls-126" x="54.92" y="140.4">action Design </tspan><tspan class="cls-129" x="116.99" y="140.4">a</tspan><tspan class="cls-130" x="121.71" y="140.4">t </tspan><tspan class="cls-132" x="126.81" y="140.4">C</tspan><tspan class="cls-131" x="133.22" y="140.4">openhaguen Institute o</tspan><tspan class="cls-153" x="225.37" y="140.4">f</tspan><tspan class="cls-131" x="228.12" y="140.4" xml:space="preserve"> Inte</tspan><tspan class="cls-132" x="245.18" y="140.4">r</tspan><tspan class="cls-131" x="247.85" y="140.4">action Design</tspan><tspan class="cls-130"><tspan x="0" y="151.2">July 2018 </tspan></tspan><tspan class="cls-126" x="0" y="172.8">Innov</tspan><tspan class="cls-128" x="24.74" y="172.8">a</tspan><tspan class="cls-126" x="29.74" y="172.8">tion </tspan><tspan class="cls-154" x="49.24" y="172.8">S</tspan><tspan class="cls-126" x="54.5" y="172.8">t</tspan><tspan class="cls-155" x="57.85" y="172.8">r</tspan><tspan class="cls-128" x="61.27" y="172.8">a</tspan><tspan class="cls-126" x="66.28" y="172.8">tegy Bootcamp</tspan><tspan class="cls-130" x="132.82" y="172.8"> </tspan><tspan class="cls-129" x="135.07" y="172.8">a</tspan><tspan class="cls-130" x="139.79" y="172.8">t </tspan><tspan class="cls-156" x="144.89" y="172.8">C</tspan><tspan class="cls-157" x="151.3" y="172.8">O</tspan><tspan class="cls-156" x="159.15" y="172.8">C</tspan><tspan class="cls-157" x="165.55" y="172.8">OLAB</tspan><tspan class="cls-130"><tspan x="0" y="183.6">Oct 2018 - Nov 2018</tspan></tspan></text><rect x="401.15" y="113.1" width="60.95" height="5.34" rx="2.67" ry="2.67"/><rect x="401.62" y="123.69" width="55.31" height="5.34" rx="2.67" ry="2.67"/><rect x="401.62" y="135.14" width="55.31" height="5.34" rx="2.67" ry="2.67"/><rect x="401.62" y="145.38" width="47.7" height="5.34" rx="2.67" ry="2.67"/><rect x="401.88" y="155.61" width="66.44" height="5.34" rx="2.67" ry="2.67"/><rect x="401.88" y="165.88" width="71.52" height="5.34" rx="2.67" ry="2.67"/><rect x="401.62" y="177.38" width="60.95" height="5.34" rx="2.67" ry="2.67"/><rect x="401.88" y="188.94" width="60.95" height="5.34" rx="2.67" ry="2.67"/><text class="cls-158" transform="translate(326.03 117.38) scale(0.88 1)">.........................<tspan class="cls-159" x="75.19" y="0">.</tspan></text><text class="cls-158" transform="translate(328.51 129.03) scale(0.88 1)">........................<tspan class="cls-160" x="72.18" y="0">.</tspan></text><text class="cls-158" transform="translate(328.51 140.74) scale(0.88 1)">........................<tspan class="cls-160" x="72.18" y="0">.</tspan></text><text class="cls-158" transform="translate(301.7 150.3) scale(0.88 1)">..................................<tspan class="cls-160" x="102.26" y="0">.</tspan></text><text class="cls-158" transform="translate(290.32 162.43) scale(0.88 1)">......................................<tspan class="cls-160" x="114.29" y="0">.</tspan></text><text class="cls-158" transform="translate(297.39 171.66) scale(0.88 1)">....................................<tspan class="cls-160" x="108.28" y="0">.</tspan></text><text class="cls-158" transform="translate(304.31 182.78) scale(0.88 1)">.................................<tspan class="cls-160" x="99.25" y="0">.</tspan></text><text class="cls-158" transform="translate(307.05 194.28) scale(0.88 1)">.................................<tspan class="cls-160" x="99.25" y="0">.</tspan></text><text class="cls-161" transform="translate(400.15 91.4) scale(0.88 1)">0%</text><text class="cls-162" transform="translate(455.93 92)">100%</text><text class="cls-94" transform="translate(-67.83 -3.24)">about me</text><text class="cls-158" transform="translate(322.5 107.08) scale(0.88 1)">..........................<tspan class="cls-159" x="78.2" y="0">.</tspan></text><text class="cls-114" transform="translate(261.07 6.8) scale(0.88 1)">C<tspan class="cls-117" x="6.41" y="0">r</tspan><tspan class="cls-163" x="9.45" y="0">e</tspan><tspan class="cls-164" x="14.49" y="0">a</tspan><tspan x="19.15" y="0">tivity &amp; p</tspan><tspan class="cls-117" x="54.29" y="0">r</tspan><tspan x="57.33" y="0">oblem solving</tspan><tspan x="0" y="10.68">Critical thinking</tspan><tspan x="0" y="21.36">Emp</tspan><tspan class="cls-164" x="18.78" y="21.36">a</tspan><tspan x="23.44" y="21.36">thy</tspan><tspan class="cls-165" x="0" y="32.04">P</tspan><tspan x="4.52" y="32.04">eople management</tspan><tspan class="cls-118" x="0" y="42.71">R</tspan><tspan x="5.22" y="42.71">esilience</tspan><tspan class="cls-117" x="0" y="53.39">L</tspan><tspan class="cls-163" x="4.38" y="53.39">e</tspan><tspan x="9.41" y="53.39">arning agility</tspan><tspan x="0" y="64.07">Adaptability</tspan></text><rect x="397.62" y="2.92" width="66.7" height="5.34" rx="2.67" ry="2.67"/><rect x="397.15" y="13.33" width="50.84" height="5.34" rx="2.67" ry="2.67"/><rect x="397.62" y="23.91" width="55.31" height="5.34" rx="2.67" ry="2.67"/><rect x="397.62" y="35.37" width="55.31" height="5.34" rx="2.67" ry="2.67"/><rect x="397.62" y="45.6" width="60.48" height="5.34" rx="2.67" ry="2.67"/><rect x="397.88" y="55.84" width="60.22" height="5.34" rx="2.67" ry="2.67"/><text class="cls-158" transform="translate(310.82 17.6) scale(0.88 1)">..............................<tspan class="cls-160" x="90.23" y="0">.</tspan></text><text class="cls-158" transform="translate(293.39 29.25) scale(0.88 1)">....................................<tspan class="cls-160" x="108.28" y="0">.</tspan></text><text class="cls-158" transform="translate(336.04 39.19) scale(0.88 1)">..<tspan class="cls-160" x="6.02" y="0">.</tspan><tspan class="cls-166" x="8.68" y="0" xml:space="preserve"> ................</tspan><tspan class="cls-160" x="59.69" y="0">.</tspan></text><text class="cls-158" transform="translate(297.7 50.53) scale(0.88 1)">..................................<tspan class="cls-160" x="102.26" y="0">.</tspan></text><text class="cls-158" transform="translate(315.4 61.58) scale(0.88 1)">...........................<tspan class="cls-159" x="81.21" y="0">.</tspan></text><text class="cls-158" transform="translate(358.5 7.3) scale(0.88 1)">............<tspan class="cls-159" x="36.09" y="0">.</tspan></text><text class="cls-162" transform="translate(452.93 -1.06)">100%</text><text class="cls-158" transform="translate(303.05 70.58) scale(0.88 1)">.................................<tspan class="cls-160" x="99.25" y="0">.</tspan></text><rect x="398.95" y="65.44" width="59.88" height="5.34" rx="2.67" ry="2.67"/><rect x="402.14" y="200.03" width="60.95" height="5.34" rx="2.67" ry="2.67"/><text class="cls-158" transform="translate(304.31 205.37) scale(0.88 1)">.................................<tspan class="cls-160" x="99.25" y="0">.</tspan></text><rect x="402.41" y="210.33" width="60.95" height="5.34" rx="2.67" ry="2.67"/><text class="cls-158" transform="translate(305.07 215.67) scale(0.88 1)">.................................<tspan class="cls-160" x="99.25" y="0">.</tspan></text><rect x="246.63" y="464.96" width="4.08" height="4.08"/><rect x="246.84" y="499.92" width="4.08" height="4.08"/><rect x="246.96" y="542.29" width="4.08" height="4.08"/><rect x="247" y="574.67" width="4.08" height="4.08"/><rect x="246.63" y="607.5" width="4.08" height="4.08"/><rect x="244.92" y="276.02" width="4.08" height="4.08"/><rect x="246.63" y="355.33" width="4.08" height="4.08"/><rect class="cls-167" x="318.67" y="41.42" width="4.08" height="4.08"/></g></svg>